<svg xmlns="http://www.w3.org/2000/svg" xmlns:xlink="http://www.w3.org/1999/xlink" width="127" height="127" viewBox="0 0 127 127"><defs><filter id="a" x="0" y="0" width="127" height="127" filterUnits="userSpaceOnUse"><feOffset dy="2" input="SourceAlpha"/><feGaussianBlur stdDeviation="3" result="b"/><feFlood flood-opacity="0.2"/><feComposite operator="in" in2="b"/><feComposite in="SourceGraphic"/></filter><linearGradient id="c" x1="0.5" y1="1" x2="0.5" gradientUnits="objectBoundingBox"><stop offset="0" stop-color="gray" stop-opacity="0.251"/><stop offset="0.54" stop-color="gray" stop-opacity="0.122"/><stop offset="1" stop-color="gray" stop-opacity="0.102"/></linearGradient><linearGradient id="d" x1="0.5" y1="1" x2="0.5" y2="0" xlink:href="#c"/></defs><g transform="translate(-34 -204)"><g transform="matrix(1, 0, 0, 1, 34, 204)" filter="url(#a)"><rect width="109" height="109" rx="8" transform="translate(9 7)" fill="#f8f8ff"/></g><g transform="translate(50 230)"><g transform="translate(15.737 9.098)" opacity="0.2"><path d="M432.543,721.906a4.491,4.491,0,0,0,.19.638q1.835-.8,3.71-1.536c-.011-.058-.021-.118-.034-.178a3.759,3.759,0,0,0-.78-1.647,1.738,1.738,0,0,0-1.77-.7,2.025,2.025,0,0,0-1.289,1.546A4.052,4.052,0,0,0,432.543,721.906Z" transform="translate(-415.319 -665.818)" fill="#3f3d56"/><path d="M1.93-.026c1.079-.005,1.947,1.294,1.94,2.9S2.981,5.79,1.9,5.8-.045,4.5-.037,2.894.851-.021,1.93-.026Z" transform="translate(15.901 49.632) rotate(-12.59)" fill="#3f3d56"/><path d="M1.93-.026c1.079-.005,1.947,1.294,1.94,2.9S2.981,5.79,1.9,5.8-.045,4.5-.037,2.894.851-.021,1.93-.026Z" transform="translate(15.148 46.11) rotate(-12.59)" fill="#3f3d56"/><path d="M1.93-.026c1.079-.005,1.947,1.294,1.94,2.9S2.981,5.79,1.9,5.8-.045,4.5-.037,2.894.851-.021,1.93-.026Z" transform="translate(14.393 42.589) rotate(-12.59)" fill="#3f3d56"/><path d="M1.93-.026c1.079-.005,1.947,1.294,1.94,2.9S2.981,5.79,1.9,5.8-.045,4.5-.037,2.894.851-.021,1.93-.026Z" transform="translate(13.637 39.067) rotate(-12.59)" fill="#3f3d56"/><path d="M256.036,195.863a11.711,11.711,0,0,0,.463-1.407l-5.28.462,5.5-1.48a12.291,12.291,0,0,0-.1-4.644,11.582,11.582,0,0,0-1.516-3.759l-6.442,6.4,5.577-7.578a8.791,8.791,0,0,0-9.142-3.032c-5.114,1.421-8.247,7.294-7,13.117a11.046,11.046,0,0,0,3.378,5.967,11.962,11.962,0,0,0-.645,2.215l7.429,2.068-7.605-.733a12.3,12.3,0,0,0,.236,3.521,11.055,11.055,0,0,0,3.379,5.967,12.179,12.179,0,0,0-.584,7.069c1.248,5.823,6.4,9.39,11.518,7.97s8.247-7.293,7-13.116a11.055,11.055,0,0,0-3.379-5.967,12.18,12.18,0,0,0,.584-7.069A11.051,11.051,0,0,0,256.036,195.863Z" transform="translate(-237.827 -180.514)" fill="#6c63ff"/><path d="M272.674,446.37a11.055,11.055,0,0,0,3.379,5.967,12.179,12.179,0,0,0-.584,7.069c1.248,5.823,6.4,9.391,11.519,7.97s8.247-7.293,7-13.116a11.056,11.056,0,0,0-3.379-5.967C291.465,446.155,272.42,445.189,272.674,446.37Z" transform="translate(-269.605 -419.905)" opacity="0.1"/></g><g transform="translate(50.596 0)" opacity="0.2"><path d="M702.829,715.169a5.053,5.053,0,0,0-.038.769q2.3.041,4.62.172c.01-.068.021-.136.03-.206a4.5,4.5,0,0,0-.216-2.125,2.276,2.276,0,0,0-1.656-1.6,2.106,2.106,0,0,0-1.992,1.013A4.333,4.333,0,0,0,702.829,715.169Z" transform="translate(-696.732 -651.057)" fill="#3f3d56"/><path d="M3.341-.028C5.193-.034,6.692.99,6.688,2.259s-1.509,2.3-3.361,2.309S-.025,3.549-.021,2.28,1.488-.023,3.341-.028Z" transform="translate(6.216 63.357) rotate(-81.82)" fill="#3f3d56"/><path d="M3.341-.028C5.193-.034,6.692.99,6.688,2.259s-1.509,2.3-3.361,2.309S-.025,3.549-.021,2.28,1.488-.023,3.341-.028Z" transform="translate(6.746 59.255) rotate(-81.82)" fill="#3f3d56"/><path d="M3.341-.028C5.193-.034,6.692.99,6.688,2.259s-1.509,2.3-3.361,2.309S-.025,3.549-.021,2.28,1.488-.023,3.341-.028Z" transform="translate(7.276 55.154) rotate(-81.82)" fill="#3f3d56"/><path d="M3.341-.028C5.193-.034,6.692.99,6.688,2.259s-1.509,2.3-3.361,2.309S-.025,3.549-.021,2.28,1.488-.023,3.341-.028Z" transform="translate(7.808 51.052) rotate(-81.82)" fill="#3f3d56"/><path d="M656.738,108.885a11.916,11.916,0,0,0,1.04-1.272l-5.916-2.066,6.547,1.1a13.605,13.605,0,0,0,1.469-9.7l-9.448,3.662,8.966-5.331a11.373,11.373,0,0,0-9.3-7.728A10.825,10.825,0,0,0,639.645,93.2a13.6,13.6,0,0,0-.273,12.907,12.212,12.212,0,0,0-1.546,2.037l7.279,5.8-7.983-4.468a13.637,13.637,0,0,0,.287,11.816,13.427,13.427,0,0,0-.961,16.8,10.412,10.412,0,0,0,14.991,2.395c4.794-3.67,6.246-10.819,3.335-16.421A13.44,13.44,0,0,0,656.738,108.885Z" transform="translate(-633.95 -87.501)" fill="#6c63ff"/><path d="M636.027,350.35a13.523,13.523,0,0,0,1.382,7.97,13.426,13.426,0,0,0-.961,16.8,10.412,10.412,0,0,0,14.991,2.395c4.794-3.669,6.246-10.819,3.335-16.421C656.526,359.241,636.206,348.972,636.027,350.35Z" transform="translate(-633.95 -324.525)" opacity="0.1"/></g><ellipse cx="47.504" cy="2.341" rx="47.504" ry="2.341" transform="translate(0 65.562)" fill="#6c63ff" opacity="0.1"/><ellipse cx="2.226" cy="0.476" rx="2.226" ry="0.476" transform="translate(76.508 65.71)" fill="#6c63ff"/><ellipse cx="0.26" cy="0.378" rx="0.26" ry="0.378" transform="translate(78.438 65.607)" fill="#3f3d56"/><ellipse cx="0.26" cy="0.378" rx="0.26" ry="0.378" transform="translate(78.438 65.146)" fill="#3f3d56"/><ellipse cx="0.26" cy="0.378" rx="0.26" ry="0.378" transform="translate(78.438 64.685)" fill="#3f3d56"/><ellipse cx="0.26" cy="0.378" rx="0.26" ry="0.378" transform="translate(78.438 64.224)" fill="#3f3d56"/><ellipse cx="0.26" cy="0.378" rx="0.26" ry="0.378" transform="translate(78.438 63.763)" fill="#3f3d56"/><ellipse cx="0.26" cy="0.378" rx="0.26" ry="0.378" transform="translate(78.438 63.302)" fill="#3f3d56"/><ellipse cx="0.26" cy="0.378" rx="0.26" ry="0.378" transform="translate(78.438 62.841)" fill="#3f3d56"/><path d="M941.281,680.891a1.348,1.348,0,0,0,.1-.158l-.681-.124.736.006a1.526,1.526,0,0,0,.024-1.094l-.988.57.912-.745a1.22,1.22,0,0,0-1.137-.693,1.25,1.25,0,0,0-1.073.808,1.507,1.507,0,0,0,.158,1.43,1.456,1.456,0,0,0-.142.251l.88.511-.942-.352a18.789,18.789,0,0,1,.337,3.164,1.152,1.152,0,0,0,1.685,0,25.062,25.062,0,0,0,.134-3.573Z" transform="translate(-861.613 -620.827)" fill="#6c63ff"/><path d="M939.082,710.083a1.473,1.473,0,0,0,.264.853,1.492,1.492,0,0,0,.133,1.867,1.152,1.152,0,0,0,1.685,0,1.493,1.493,0,0,0,.134-1.867C941.466,710.7,939.082,709.929,939.082,710.083Z" transform="translate(-861.631 -649.166)" opacity="0.1"/><ellipse cx="2.974" cy="0.636" rx="2.974" ry="0.636" transform="translate(24.632 69.223)" fill="#6c63ff"/><ellipse cx="0.347" cy="0.504" rx="0.347" ry="0.504" transform="translate(27.209 69.085)" fill="#3f3d56"/><ellipse cx="0.347" cy="0.504" rx="0.347" ry="0.504" transform="translate(27.209 68.469)" fill="#3f3d56"/><ellipse cx="0.347" cy="0.504" rx="0.347" ry="0.504" transform="translate(27.209 67.852)" fill="#3f3d56"/><ellipse cx="0.347" cy="0.504" rx="0.347" ry="0.504" transform="translate(27.209 67.237)" fill="#3f3d56"/><ellipse cx="0.347" cy="0.504" rx="0.347" ry="0.504" transform="translate(27.209 66.621)" fill="#3f3d56"/><ellipse cx="0.347" cy="0.504" rx="0.347" ry="0.504" transform="translate(27.209 66.005)" fill="#3f3d56"/><ellipse cx="0.347" cy="0.504" rx="0.347" ry="0.504" transform="translate(27.209 65.389)" fill="#3f3d56"/><path d="M356.126,690.627a1.978,1.978,0,0,0,.128-.211l-.909-.166.984.009a2.033,2.033,0,0,0,.032-1.462l-1.32.761,1.217-.99a1.626,1.626,0,0,0-1.515-.912,1.669,1.669,0,0,0-1.426,1.074,2.014,2.014,0,0,0,.2,1.9,1.939,1.939,0,0,0-.189.336l1.182.685-1.26-.47a2.016,2.016,0,0,0,.264,1.731,1.994,1.994,0,0,0,.179,2.494,1.539,1.539,0,0,0,2.251,0,33.435,33.435,0,0,0,.179-4.774Z" transform="translate(-327.273 -628.949)" fill="#6c63ff"/><path d="M353.172,729.45a8.13,8.13,0,0,1,.531,3.635,1.539,1.539,0,0,0,2.251,0,2,2,0,0,0,.179-2.494C356.357,730.277,353.172,729.244,353.172,729.45Z" transform="translate(-327.282 -666.633)" opacity="0.1"/><path d="M354.854,277.249a28.573,28.573,0,0,1-.517-3.94c-.025-.783.025-1.579-.066-2.359-.045-.383-.123-.76-.2-1.137l-.312-1.507a2.792,2.792,0,0,0-.03-.868,3.294,3.294,0,0,0-.124-.441,7.119,7.119,0,0,0,.714-1.467,1.605,1.605,0,0,0,.121-.733,1.564,1.564,0,0,0-.865-1.025,1.784,1.784,0,0,0-.748-.3,1.167,1.167,0,0,0-.986.489,2.635,2.635,0,0,1,.063-1.157c-.23-.114-.461-.222-.694-.327a7.87,7.87,0,0,1-.035-1.018c.005-.408.011-.82.033-1.229a3.63,3.63,0,0,0,2.145-3.387v-.124a3.235,3.235,0,0,0,.227-2.258,3.893,3.893,0,0,0-1.744-2.282,5.53,5.53,0,0,0-2.686-.745,3.483,3.483,0,0,0-.935.066,4.231,4.231,0,0,0-.952.391,3.991,3.991,0,0,0-1.283.912,3.86,3.86,0,0,0-.674,2.739,13.253,13.253,0,0,0,.912,3.686,4.708,4.708,0,0,0,.546,1.122.538.538,0,0,0,.772.093q-.031.469-.019.939a1.969,1.969,0,0,0-1.327.368.68.68,0,0,0-.3.6.521.521,0,0,1,.48.474,1.106,1.106,0,0,1-.166.587c-.04.08-.079.161-.12.242a2.98,2.98,0,0,0-.8,1.572,1.569,1.569,0,0,0-.184.03c-.343.07-.685.2-1.022.3l-2.439.714-.6.186-.968.284a6.426,6.426,0,0,0-1.79.727,2.474,2.474,0,0,0-1.12,1.615c-.055.34-.021.695-.088,1.032a.193.193,0,0,1-.009.045,3.525,3.525,0,0,1-.224.617,9.3,9.3,0,0,0-.862,4.086,13.065,13.065,0,0,0,.477,2.543q.335,1.279.662,2.557a14.509,14.509,0,0,0,.545,1.79,6.886,6.886,0,0,0,1.631,2.423,2.886,2.886,0,0,0,.651.489,2.156,2.156,0,0,0,1.144.206,2.969,2.969,0,0,0,.312-.039,5.409,5.409,0,0,0,2.108-.994q.406-.286.792-.6a6.148,6.148,0,0,0,.176.97,1.91,1.91,0,0,1,.1.668,3.805,3.805,0,0,1-.344.869,5.062,5.062,0,0,0,.044,1.989,8.069,8.069,0,0,1-.211,1.866,21.562,21.562,0,0,0-.325,3.122,10.5,10.5,0,0,1-.07,1.188c-.082.556-.274,1.092-.307,1.653-.051.874.289,1.73.258,2.606-.036,1.028-.579,2.027-.39,3.032.024.126.088.272.192.3l-.051.052c-.156.16-.307.457-.13.587a.324.324,0,0,0,.133.051c.274.063.549.121.825.175a3.137,3.137,0,0,0,.1.837c.05.04.1.076.152.111a.242.242,0,0,0,.056.293.324.324,0,0,0,.133.051,25.936,25.936,0,0,0,6.895.636,2.287,2.287,0,0,0,1.2-.286,1.008,1.008,0,0,0,.423-1.146,1.332,1.332,0,0,0-.887-.643l-.41-.141a.86.86,0,0,0,.037-.685,1.332,1.332,0,0,0-.887-.643l-.944-.326a.889.889,0,0,1-.343-.179,2.035,2.035,0,0,1-.187-.241,1.047,1.047,0,0,0-.515-.359,4.957,4.957,0,0,1,.013-.667l.264-3.542a8.511,8.511,0,0,0-.051-2.4,2.377,2.377,0,0,1-.11-.962c.1-.52.6-.81.932-1.2a4.286,4.286,0,0,0,.781-2.215,49.658,49.658,0,0,0,.451-9.92,12.947,12.947,0,0,1,3.24-.579c.187-.009.278-.107.336-.3A1.34,1.34,0,0,0,354.854,277.249Zm-5.267.173c.006-.034.013-.069.018-.1l.073.1Z" transform="translate(-311.587 -235.391)" fill="url(#c)"/><path d="M465.345,320.344c-.023.34-.131.667-.171,1.007-.045.374-.005.754-.027,1.131a1.522,1.522,0,0,1-.378,1.018,16.274,16.274,0,0,1,4.393,1.056,3.574,3.574,0,0,1-.429-2.16,11.609,11.609,0,0,1,.359-3.3,6.521,6.521,0,0,0-2.969-.043c-.213.047-.858.018-.954.239C465.1,319.453,465.361,320.1,465.345,320.344Z" transform="translate(-429.062 -296.267)" fill="#a1616a"/><path d="M465.345,320.344c-.023.34-.131.667-.171,1.007-.045.374-.005.754-.027,1.131a1.522,1.522,0,0,1-.378,1.018,16.274,16.274,0,0,1,4.393,1.056,3.574,3.574,0,0,1-.429-2.16,11.609,11.609,0,0,1,.359-3.3,6.521,6.521,0,0,0-2.969-.043c-.213.047-.858.018-.954.239C465.1,319.453,465.361,320.1,465.345,320.344Z" transform="translate(-429.062 -296.267)" opacity="0.1"/><path d="M426.872,743.945a1.991,1.991,0,0,0,.176.245.85.85,0,0,0,.335.179l.922.326a1.3,1.3,0,0,1,.868.641,1.018,1.018,0,0,1-.414,1.145,2.2,2.2,0,0,1-1.171.286,24.873,24.873,0,0,1-6.74-.635.331.331,0,0,1-.129-.051c-.176-.132-.025-.427.127-.587a4.107,4.107,0,0,1,2.049-1.427c.425-.077.852-.046,1.274-.159.3-.081.59-.221.893-.3A1.707,1.707,0,0,1,426.872,743.945Z" transform="translate(-388.814 -679.332)" fill="#46455b"/><path d="M426.872,743.945a1.991,1.991,0,0,0,.176.245.85.85,0,0,0,.335.179l.922.326a1.3,1.3,0,0,1,.868.641,1.018,1.018,0,0,1-.414,1.145,2.2,2.2,0,0,1-1.171.286,24.873,24.873,0,0,1-6.74-.635.331.331,0,0,1-.129-.051c-.176-.132-.025-.427.127-.587a4.107,4.107,0,0,1,2.049-1.427c.425-.077.852-.046,1.274-.159.3-.081.59-.221.893-.3A1.707,1.707,0,0,1,426.872,743.945Z" transform="translate(-388.814 -679.332)" opacity="0.1"/><path d="M422.593,514.666a6.871,6.871,0,0,0-.079,4.158c-.307-.037-.44.424-.432.769a6.287,6.287,0,0,0,.194,1.417,1.953,1.953,0,0,1,.1.667,3.839,3.839,0,0,1-.337.868,5.167,5.167,0,0,0,.044,1.986,8.2,8.2,0,0,1-.208,1.864,22.006,22.006,0,0,0-.317,3.117,10.436,10.436,0,0,1-.07,1.187c-.079.556-.264,1.091-.3,1.651-.05.872.282,1.728.252,2.6-.035,1.026-.567,2.024-.381,3.032.026.142.1.309.229.311,1.327.019,2.567-.391,3.88-.177a73,73,0,0,1,.862-10.084c.528-2.951,1.423-5.869,1.339-8.878a50.344,50.344,0,0,0-.64-5.112A5.515,5.515,0,0,0,422.593,514.666Z" transform="translate(-389.165 -472.178)" fill="#bbbdc8"/><path d="M422.593,514.666a6.871,6.871,0,0,0-.079,4.158c-.307-.037-.44.424-.432.769a6.287,6.287,0,0,0,.194,1.417,1.953,1.953,0,0,1,.1.667,3.839,3.839,0,0,1-.337.868,5.167,5.167,0,0,0,.044,1.986,8.2,8.2,0,0,1-.208,1.864,22.006,22.006,0,0,0-.317,3.117,10.436,10.436,0,0,1-.07,1.187c-.079.556-.264,1.091-.3,1.651-.05.872.282,1.728.252,2.6-.035,1.026-.567,2.024-.381,3.032.026.142.1.309.229.311,1.327.019,2.567-.391,3.88-.177a73,73,0,0,1,.862-10.084c.528-2.951,1.423-5.869,1.339-8.878a50.344,50.344,0,0,0-.64-5.112A5.515,5.515,0,0,0,422.593,514.666Z" transform="translate(-389.165 -472.178)" opacity="0.1"/><path d="M440.872,758.945a1.979,1.979,0,0,0,.176.246.852.852,0,0,0,.335.179l.922.326a1.3,1.3,0,0,1,.868.642,1.018,1.018,0,0,1-.415,1.144,2.2,2.2,0,0,1-1.171.286,24.879,24.879,0,0,1-6.74-.635.33.33,0,0,1-.129-.051c-.176-.132-.025-.427.127-.587a4.109,4.109,0,0,1,2.049-1.427c.425-.077.852-.046,1.274-.158.3-.081.59-.221.893-.3A1.707,1.707,0,0,1,440.872,758.945Z" transform="translate(-401.582 -692.865)" fill="#46455b"/><path d="M433.315,516.671a2.727,2.727,0,0,0-.394,1.747,7.965,7.965,0,0,0,.414,1.78c-.242.248-.192.674-.16,1.038.115,1.352-.307,2.7-.245,4.056.026.57.137,1.133.164,1.7a12.145,12.145,0,0,1-.109,1.865q-.641,5.945-.7,11.942a4.276,4.276,0,0,0,.088,1.094,2.451,2.451,0,0,0,2.218.4,7.984,7.984,0,0,0,2.175-1.062,6.678,6.678,0,0,0,1.077-.773.637.637,0,0,0,.217-.33c.074-.391-.415-.568-.7-.822a2.008,2.008,0,0,1-.36-1.635l.255-3.537a8.7,8.7,0,0,0-.049-2.4,2.463,2.463,0,0,1-.108-.962c.1-.518.583-.808.911-1.194a4.342,4.342,0,0,0,.764-2.212A50.762,50.762,0,0,0,439.112,516a7.68,7.68,0,0,1-2.1.172c-.682.059-1.36.312-2.05.333C434.39,516.519,433.669,516.166,433.315,516.671Z" transform="translate(-399.43 -474.086)" fill="#bbbdc8"/><ellipse cx="3.016" cy="3.122" rx="3.016" ry="3.122" transform="translate(36.194 18.732)" fill="#a1616a"/><path d="M436.131,355.206a16.369,16.369,0,0,0-3.248-1.246,2.626,2.626,0,0,0-2.343.19.676.676,0,0,0-.3.6.512.512,0,0,1,.469.473,1.123,1.123,0,0,1-.162.587l-.759,1.565a6.442,6.442,0,0,0-.374.88,6.676,6.676,0,0,0-.219,1.553l-.088,1.42a18.882,18.882,0,0,0-.037,2.687,9.743,9.743,0,0,1,.1,2.021c-.07.539-.275,1.045-.39,1.575a14.529,14.529,0,0,1-.538,3.007.74.74,0,0,1,.545-.055c1.274.261,2.277,1.379,3.514,1.807.312-.507.736-.88,1.085-1.352a2.759,2.759,0,0,0,.5-1.227,4.722,4.722,0,0,1,.646,1.15.8.8,0,0,0,.141.287c.166.18.44.11.663.035a12.423,12.423,0,0,1,3.359-.633c.183-.009.272-.107.329-.3a1.344,1.344,0,0,0-.009-.6,29.175,29.175,0,0,1-.5-3.935c-.025-.782.024-1.576-.065-2.356-.044-.382-.121-.759-.2-1.135l-.628-3.1c-.035-.173-.2-.287-.274-.446-.289-.65-.84-1.119-1.126-1.77A2.562,2.562,0,0,1,436.131,355.206Z" transform="translate(-395.746 -327.733)" fill="#46455b"/><path d="M446.309,259.092a.261.261,0,0,1,.031-.145.291.291,0,0,1,.127-.087.765.765,0,0,0,.372-.793l.308-.071.01-1.192c.458-.282,1.082-.068,1.512-.4a2.281,2.281,0,0,0,.514-.79c.148-.284.368-.569.662-.593a2.306,2.306,0,0,0,.1,1.773,1.91,1.91,0,0,0,.742-.771l.153.978a.255.255,0,0,0,.065.159c.08.065.188-.017.259-.1l.4-.435a6.645,6.645,0,0,1,.342,1.457,3.109,3.109,0,0,0,.606-2.815,3.887,3.887,0,0,0-1.7-2.279,5.313,5.313,0,0,0-2.625-.744,3.369,3.369,0,0,0-.913.066,4.079,4.079,0,0,0-.931.391,3.171,3.171,0,0,0-1.913,3.649,13.506,13.506,0,0,0,.891,3.681,4.727,4.727,0,0,0,.533,1.121c.356.5,1.232.085,1.12-.907C446.892,259.537,446.309,259.81,446.309,259.092Z" transform="translate(-410.492 -236.124)" fill="#3f3d56"/><path d="M353.107,405.5a14.949,14.949,0,0,1-4.88,6.123,5.242,5.242,0,0,1-2.06.993,2.9,2.9,0,0,1-.305.039,2.078,2.078,0,0,1-1.115-.21,2.829,2.829,0,0,1-.637-.489,6.889,6.889,0,0,1-1.594-2.419,14.7,14.7,0,0,1-.532-1.788q-.324-1.278-.646-2.556a13.172,13.172,0,0,1-.466-2.543,9.463,9.463,0,0,1,.843-4.08,3.6,3.6,0,0,0,.219-.616.289.289,0,0,1,.009-.045c.063-.337.031-.691.088-1.031a2.471,2.471,0,0,1,1.095-1.613,6.174,6.174,0,0,1,1.75-.726l.944-.283.586-.175,2.384-.713c.33-.1.663-.228,1-.293.374-.078.371-.037.4.37a18.68,18.68,0,0,0,.176,2.193c.133.7.367,1.369.543,2.054.444,1.728.518,3.548.869,5.3a1.877,1.877,0,0,0,.481,1.076c.332.293.891.366.979.826A1.151,1.151,0,0,1,353.107,405.5Z" transform="translate(-316.058 -363.151)" fill="#6c63ff"/><path d="M346.167,457.494a2.863,2.863,0,0,1-.305.039,2.077,2.077,0,0,1-1.115-.206,2.831,2.831,0,0,1-.637-.489,6.889,6.889,0,0,1-1.594-2.419,14.707,14.707,0,0,1-.532-1.788q-.324-1.278-.646-2.556a13.169,13.169,0,0,1-.466-2.543,9.463,9.463,0,0,1,.843-4.08,3.606,3.606,0,0,0,.219-.616.292.292,0,0,1,.009-.045c1.436.281,3.159,3.335,4.048,7.336A15.95,15.95,0,0,1,346.167,457.494Z" transform="translate(-316.058 -408.037)" opacity="0.1"/><path d="M400.043,411.689l-.24.046c-.247-.722-.494-1.445-.783-2.147-.15-.367-.313-.729-.44-1.107-.475-1.453-.394-3.178-1.275-4.375a1.431,1.431,0,0,0-.214-.241l.586-.175a9.413,9.413,0,0,1,1.068,2.945,12.879,12.879,0,0,0,.3,1.524,11.161,11.161,0,0,0,.451,1.09A5.46,5.46,0,0,1,400.043,411.689Z" transform="translate(-367.338 -372.761)" opacity="0.1"/><path d="M445.378,365.248a2.719,2.719,0,0,1,2.315-.783,4.179,4.179,0,0,1,1.362.587,7.435,7.435,0,0,1,2.279,1.886,7.777,7.777,0,0,1,.9,1.682,4.379,4.379,0,0,1,.264.823,5.067,5.067,0,0,1-.82,3.184l-.977,1.884a16.538,16.538,0,0,1-1.485,2.5c-.269.35-.565.674-.86,1l-1.294,1.42a.194.194,0,0,1-.088.065.186.186,0,0,1-.152-.068l-.428-.379a7.533,7.533,0,0,0,1.093-1.03,16.232,16.232,0,0,0,1.477-2.122l1.424-2.295a3.951,3.951,0,0,0,.8-2.225,3.72,3.72,0,0,0-.292-1.118q-.367-.957-.8-1.885a9.76,9.76,0,0,0-1.138-1.964,3.706,3.706,0,0,0-1.725-1.288,1.3,1.3,0,0,0-.625-.067c-.463.085-.792.527-1.085.938l-.892,1.272c-.2.289-.39.623-.4.075A3.544,3.544,0,0,1,445.378,365.248Z" transform="translate(-410.334 -337.341)" fill="#6c63ff"/><path d="M453.5,383.4c.176.753.436,1.608,1.088,1.894a1.378,1.378,0,0,0,1.4-.293,4.308,4.308,0,0,0,.943-1.272,12.526,12.526,0,0,1,.728-1.227,11.508,11.508,0,0,0,1.584-2.152c.1-.252.176-.522.294-.765a4.773,4.773,0,0,1,.426-.633,7.088,7.088,0,0,0,.96-1.853,1.636,1.636,0,0,0,.119-.732,1.553,1.553,0,0,0-.846-1.023,1.713,1.713,0,0,0-.731-.3,1.144,1.144,0,0,0-.993.531,2.283,2.283,0,0,0-.363,1.19,6.341,6.341,0,0,1-.088,1.556,2.528,2.528,0,0,1-.332.638,7.063,7.063,0,0,1-1.8,1.852,3.818,3.818,0,0,0-.214-1.079c-.067-.19-1.378,0-1.549.031-.338.055-.993.1-1.206.456s.051.96.137,1.32Z" transform="translate(-418.18 -346.911)" fill="#a1616a"/><path d="M447.693,372.19a4.908,4.908,0,0,0-.542.587,3.59,3.59,0,0,0-.631,1.882,8.965,8.965,0,0,0,.139,2.029q.143.9.337,1.791a1.21,1.21,0,0,1,.739-.978,2.136,2.136,0,0,1,1.194-.078,5.4,5.4,0,0,1,1.5.482l.186-2.892a5.6,5.6,0,0,0-.006-1.174,2.605,2.605,0,0,0-1.086-1.756A1.23,1.23,0,0,0,447.693,372.19Z" transform="translate(-412.404 -343.924)" fill="#46455b"/><path d="M608.157,275.043a7.407,7.407,0,0,0-.607-2.255,8.542,8.542,0,0,1-.554-1.3c-.1-.375-.119-.769-.2-1.149s-.219-.744-.332-1.116c-.8-2.641-.2-5.531-.455-8.3a3.542,3.542,0,0,0-1.174-2.673,3.057,3.057,0,0,0-1.6-.391l-.254-.013-.408-.022a6.091,6.091,0,0,0-1.76.081,2.43,2.43,0,0,0-1.76,1.521c-.122-.069-.244-.131-.356-.189a5.94,5.94,0,0,0-1.416-.489,4.984,4.984,0,0,0,1.2-.516c.88-.569,1.084-2.232,1.264-3.344a7.926,7.926,0,0,0-.282-3.342,6.146,6.146,0,0,0-.4-1.107,3.549,3.549,0,0,0-2.2-1.877,3.186,3.186,0,0,0-2.738.517,11.092,11.092,0,0,0-2.211,2.308c-.088.115-.456.524-.334.7.069.1.295.02.532-.1a3.933,3.933,0,0,0-.276,1.457,3.727,3.727,0,0,0,1.6,3.122l.088.9v.007c.01.3.014.6.017.9,0,.21,0,.426-.005.641a4.038,4.038,0,0,1-1.313,1.086,1.918,1.918,0,0,0,1.191-.215,1.972,1.972,0,0,1-.308.659c.106-.041.211-.078.317-.117a2.648,2.648,0,0,0-.147.307,2.577,2.577,0,0,0-.142.522,7.6,7.6,0,0,0-.58,1.152h0c-.074.183-.14.369-.2.557v.013q-.088.282-.156.571h0q-.032.139-.058.279v.021q-.053.283-.088.57v.039c-.01.089-.018.179-.025.269v.014c-.007.1-.012.191-.015.287v.338c0,.184.011.369.026.554a.253.253,0,0,0,.006.068c.007.075.015.151.025.227a.152.152,0,0,0,.006.052c.012.091.025.181.04.271a.362.362,0,0,0,.011.06c.012.072.025.144.04.216l.016.074c.019.09.04.179.062.269.013.051.026.1.04.152a4.193,4.193,0,0,1,.088.564l-.481.018q-1.546.049-3.088.155a1.241,1.241,0,0,0-1.118-.944,1.982,1.982,0,0,0-.264-.018h0a1.568,1.568,0,0,0,.252-.3,1.421,1.421,0,0,0,.2-.489,1.253,1.253,0,0,0-.364.355c-.033.049-.062.1-.088.143v-.293a.05.05,0,0,0-.012-.033.04.04,0,0,0-.03-.013H587.3a.04.04,0,0,0-.03.013.049.049,0,0,0-.012.033v.6h-.048a1.58,1.58,0,0,0-.17.025A1.225,1.225,0,0,0,586,268.384a1.643,1.643,0,0,0,.5,1.191,3.742,3.742,0,0,0,.136.659.894.894,0,0,0,.318.549.664.664,0,0,0,.347.07c.979,0,1.9-.5,2.878-.587.6-.054,1.207.05,1.81.029.088,0,.176-.01.264-.018-.826,4.544-1.824,9.145-1.3,13.734a1.408,1.408,0,0,0,.293.843,1.251,1.251,0,0,0,1.056.2,7.972,7.972,0,0,1,2.988.265.82.82,0,0,0,.421.017.72.72,0,0,0,.088-.028l.025-.011c.018-.008.036-.016.053-.024l.026-.015.043-.029.021-.017a.371.371,0,0,0,.043-.039l.012-.012a.649.649,0,0,0,.047-.057l.011-.018a.522.522,0,0,0,.028-.046l.012-.023c0-.008.014-.029.02-.044a.179.179,0,0,0,.01-.026c0-.009.012-.032.017-.049s0-.016.007-.024a.308.308,0,0,0,.017-.073v-.016a.515.515,0,0,1,.01-.063.121.121,0,0,0,0-.032v-.249h0c0-.087-.009-.175-.017-.259a1.275,1.275,0,0,0,.192.046h0a.965.965,0,0,0,.183.015h.009a.338.338,0,0,0,.088-.008h0a.685.685,0,0,0,.076-.018h.011a.382.382,0,0,0,.067-.029l.011-.007a.362.362,0,0,0,.052-.039l.008-.007a.343.343,0,0,0,.044-.057l.008-.015a.361.361,0,0,0,.031-.075c.05-.189-.064-.4.119-.575a8.506,8.506,0,0,1,.381,1.9,1.358,1.358,0,0,0,.125.685,2.75,2.75,0,0,0,.264.3,1.836,1.836,0,0,1,.257,1.25c-.008.177-.017.354-.028.531a28.825,28.825,0,0,1-1.285,6.926,3.95,3.95,0,0,1-.269.685,3.219,3.219,0,0,1-.661.808,8.459,8.459,0,0,1-1.175.928,3.6,3.6,0,0,0-.6.441c-.007-.022-.015-.044-.02-.067-.01-.045-.023-.1-.062-.114a.11.11,0,0,0-.088.016c-.413.2-.826.4-1.222.639a1.457,1.457,0,0,0-.516.443.656.656,0,0,0-.034.685.757.757,0,0,0,.513.266c.245.048.49.082.736.108a1.159,1.159,0,0,0-.325.321.656.656,0,0,0-.034.685.757.757,0,0,0,.513.266,21.017,21.017,0,0,0,4.744.046,4.718,4.718,0,0,0,1.529-.208.748.748,0,0,0,.264-.154,1.112,1.112,0,0,0,.161-.922l-.161-1.323a.288.288,0,0,0-.069.015,21.426,21.426,0,0,1,.722-3.658c.537-1.854,1.336-3.68,1.325-5.62v-.141c-.015-.607-.113-1.208-.176-1.812a29.36,29.36,0,0,1-.082-3.048,7.266,7.266,0,0,1,.075-1.19.217.217,0,0,1,.008-.04l1.462-.043a.94.94,0,0,0,.472-.1.357.357,0,0,0,.171-.42,1.215,1.215,0,0,0,1.64-.841q.019-.077.031-.156a.034.034,0,0,1,0-.012c.006-.049.01-.1.012-.146v-.024h0a3.008,3.008,0,0,0-.138-.988,17.405,17.405,0,0,0-1.221-2.667c-.231-.449-.454-.9-.672-1.361l.191.273a.878.878,0,0,0,.258.275c.356.2.73-.207,1.092-.4a2.854,2.854,0,0,1,1.576-.062,1.25,1.25,0,0,0,1.362-.658,1.6,1.6,0,0,0,.034-.691Zm-9.164-14.7c0,.209.012.422.027.635a5.923,5.923,0,0,0-.616-.91Z" transform="translate(-539.623 -232.702)" fill="url(#d)"/><path d="M600.835,433a1.255,1.255,0,0,1,.36-.353,1.415,1.415,0,0,1-.2.489c-.153.232-.314.391-.359.353S600.68,433.235,600.835,433Z" transform="translate(-552.962 -398.889)" fill="#99d55c"/><path d="M601.62,434.013a.927.927,0,0,1,.264-.263,1.061,1.061,0,0,1-.147.362c-.115.172-.234.293-.264.263S601.505,434.185,601.62,434.013Z" transform="translate(-553.728 -399.881)" opacity="0.1"/><path d="M541.187,346.77h.088a.045.045,0,0,1,.042.047v1.108h-.167v-1.108A.045.045,0,0,1,541.187,346.77Z" transform="translate(-493.528 -312.85)" fill="#f6987e"/><path d="M588.816,442.054a1.416,1.416,0,1,1-2.816,0,1.217,1.217,0,0,1,1.026-1.266,1.865,1.865,0,0,1,.382-.038,1.944,1.944,0,0,1,.264.017A1.232,1.232,0,0,1,588.816,442.054Z" transform="translate(-539.623 -406.196)" fill="#fc4a4a"/><path d="M598.306,440.8c-.025.054-.164.1-.331.1a.535.535,0,0,1-.315-.073,1.866,1.866,0,0,1,.382-.038A1.962,1.962,0,0,1,598.306,440.8Z" transform="translate(-550.257 -406.23)" opacity="0.1"/><path d="M587.643,443.663a1.493,1.493,0,0,1-1.408-1.565,1.212,1.212,0,0,1,.993-1.258,1.722,1.722,0,0,0-.2.029A1.217,1.217,0,0,0,586,442.135a1.493,1.493,0,0,0,1.408,1.565,1.255,1.255,0,0,0,.316-.04C587.7,443.662,587.672,443.663,587.643,443.663Z" transform="translate(-539.623 -406.277)" opacity="0.1"/><path d="M673.547,591.4a.924.924,0,0,0,.756.169l1.2-.1a6.28,6.28,0,0,0,2.787-.672.675.675,0,0,0,.231-.2.9.9,0,0,0,.1-.422,21.466,21.466,0,0,1,.773-4.264c.528-1.844,1.32-3.661,1.31-5.591v-.14c-.015-.6-.111-1.2-.17-1.8a29.311,29.311,0,0,1-.081-3.032,7.317,7.317,0,0,1,.074-1.185c.056-.318.264-.637.136-.917-.247-.543-1.144-.742-1.626-.762a5.956,5.956,0,0,0-1.916.351,1.179,1.179,0,0,0-.535.269,1.212,1.212,0,0,0-.256.812c-.033,1.306.644,2.521.7,3.825a1.384,1.384,0,0,0,.123.685,2.705,2.705,0,0,0,.264.3,1.847,1.847,0,0,1,.253,1.243c-.008.176-.017.352-.027.528a28.866,28.866,0,0,1-1.27,6.891,4,4,0,0,1-.264.685,3.22,3.22,0,0,1-.653.8,8.446,8.446,0,0,1-1.161.923,2.408,2.408,0,0,0-.754.638A.809.809,0,0,0,673.547,591.4Z" transform="translate(-619.321 -525.047)" fill="#fda8a8"/><path d="M673.547,591.4a.924.924,0,0,0,.756.169l1.2-.1a6.28,6.28,0,0,0,2.787-.672.675.675,0,0,0,.231-.2.9.9,0,0,0,.1-.422,21.466,21.466,0,0,1,.773-4.264c.528-1.844,1.32-3.661,1.31-5.591v-.14c-.015-.6-.111-1.2-.17-1.8a29.311,29.311,0,0,1-.081-3.032,7.317,7.317,0,0,1,.074-1.185c.056-.318.264-.637.136-.917-.247-.543-1.144-.742-1.626-.762a5.956,5.956,0,0,0-1.916.351,1.179,1.179,0,0,0-.535.269,1.212,1.212,0,0,0-.256.812c-.033,1.306.644,2.521.7,3.825a1.384,1.384,0,0,0,.123.685,2.705,2.705,0,0,0,.264.3,1.847,1.847,0,0,1,.253,1.243c-.008.176-.017.352-.027.528a28.866,28.866,0,0,1-1.27,6.891,4,4,0,0,1-.264.685,3.22,3.22,0,0,1-.653.8,8.446,8.446,0,0,1-1.161.923,2.408,2.408,0,0,0-.754.638A.809.809,0,0,0,673.547,591.4Z" transform="translate(-619.321 -525.047)" opacity="0.1"/><path d="M673.547,663.723a.923.923,0,0,0,.756.169l1.2-.1a6.283,6.283,0,0,0,2.787-.672.676.676,0,0,0,.231-.2.9.9,0,0,0,.1-.422,21.466,21.466,0,0,1,.773-4.264c.528-1.844,1.32-3.661,1.31-5.591a22.761,22.761,0,0,1-3.063.168,28.866,28.866,0,0,1-1.27,6.891,4,4,0,0,1-.264.685,3.225,3.225,0,0,1-.653.8,8.432,8.432,0,0,1-1.161.923,2.412,2.412,0,0,0-.754.638A.816.816,0,0,0,673.547,663.723Z" transform="translate(-619.321 -597.369)" fill="#eeeff3"/><path d="M673.547,663.723a.923.923,0,0,0,.756.169l1.2-.1a6.283,6.283,0,0,0,2.787-.672.676.676,0,0,0,.231-.2.9.9,0,0,0,.1-.422,21.466,21.466,0,0,1,.773-4.264c.528-1.844,1.32-3.661,1.31-5.591a22.761,22.761,0,0,1-3.063.168,28.866,28.866,0,0,1-1.27,6.891,4,4,0,0,1-.264.685,3.225,3.225,0,0,1-.653.8,8.432,8.432,0,0,1-1.161.923,2.412,2.412,0,0,0-.754.638A.816.816,0,0,0,673.547,663.723Z" transform="translate(-619.321 -597.369)" opacity="0.1"/><path d="M658.771,748.269a4.346,4.346,0,0,0,.829-.44l1.326-.832a1.064,1.064,0,0,1,.393-.177l.158,1.316a1.11,1.11,0,0,1-.158.919.743.743,0,0,1-.264.152,4.592,4.592,0,0,1-1.51.207,20.355,20.355,0,0,1-4.687-.046.755.755,0,0,1-.506-.264.652.652,0,0,1,.032-.678,1.446,1.446,0,0,1,.51-.441c.392-.235.8-.434,1.207-.635a.108.108,0,0,1,.084-.016c.039.015.052.069.062.114a1.153,1.153,0,0,0,.569.726A5.207,5.207,0,0,0,658.771,748.269Z" transform="translate(-601.887 -682.327)" fill="#bbbdc8"/><path d="M658.771,748.269a4.346,4.346,0,0,0,.829-.44l1.326-.832a1.064,1.064,0,0,1,.393-.177l.158,1.316a1.11,1.11,0,0,1-.158.919.743.743,0,0,1-.264.152,4.592,4.592,0,0,1-1.51.207,20.355,20.355,0,0,1-4.687-.046.755.755,0,0,1-.506-.264.652.652,0,0,1,.032-.678,1.446,1.446,0,0,1,.51-.441c.392-.235.8-.434,1.207-.635a.108.108,0,0,1,.084-.016c.039.015.052.069.062.114a1.153,1.153,0,0,0,.569.726A5.207,5.207,0,0,0,658.771,748.269Z" transform="translate(-601.887 -682.327)" opacity="0.1"/><path d="M683.547,605.4a.923.923,0,0,0,.756.169l1.2-.1a6.28,6.28,0,0,0,2.787-.672.677.677,0,0,0,.231-.2.9.9,0,0,0,.1-.422,21.459,21.459,0,0,1,.773-4.264c.528-1.844,1.32-3.661,1.31-5.591v-.14c-.015-.6-.111-1.2-.17-1.8a29.281,29.281,0,0,1-.081-3.032,7.319,7.319,0,0,1,.074-1.185c.056-.318.264-.637.136-.917-.247-.543-1.144-.742-1.626-.762a5.953,5.953,0,0,0-1.916.351,1.179,1.179,0,0,0-.535.269,1.212,1.212,0,0,0-.256.812c-.033,1.306.643,2.521.7,3.825a1.381,1.381,0,0,0,.123.685,2.716,2.716,0,0,0,.264.3,1.845,1.845,0,0,1,.253,1.243q-.012.264-.027.528a28.877,28.877,0,0,1-1.27,6.891,3.99,3.99,0,0,1-.264.685,3.224,3.224,0,0,1-.653.8,8.426,8.426,0,0,1-1.161.923,2.406,2.406,0,0,0-.753.638A.809.809,0,0,0,683.547,605.4Z" transform="translate(-628.441 -537.677)" fill="#fda8a8"/><path d="M683.547,677.723a.923.923,0,0,0,.756.169l1.2-.1a6.282,6.282,0,0,0,2.787-.672.678.678,0,0,0,.231-.2.9.9,0,0,0,.1-.422,21.458,21.458,0,0,1,.773-4.264c.528-1.844,1.32-3.661,1.31-5.591a22.77,22.77,0,0,1-3.063.168,28.879,28.879,0,0,1-1.27,6.891,3.989,3.989,0,0,1-.264.685,3.219,3.219,0,0,1-.653.8,8.451,8.451,0,0,1-1.161.923,2.4,2.4,0,0,0-.753.638A.815.815,0,0,0,683.547,677.723Z" transform="translate(-628.441 -610)" fill="#eeeff3"/><path d="M668.771,762.268a4.352,4.352,0,0,0,.829-.44l1.326-.831a1.061,1.061,0,0,1,.393-.177l.158,1.316a1.109,1.109,0,0,1-.158.918.744.744,0,0,1-.264.153,4.6,4.6,0,0,1-1.51.206,20.349,20.349,0,0,1-4.687-.046.757.757,0,0,1-.506-.264.652.652,0,0,1,.033-.678,1.441,1.441,0,0,1,.51-.441c.392-.235.8-.435,1.207-.635a.107.107,0,0,1,.084-.016c.04.014.052.068.063.113a1.152,1.152,0,0,0,.569.726A5.208,5.208,0,0,0,668.771,762.268Z" transform="translate(-611.007 -694.958)" fill="#bbbdc8"/><path d="M665.81,322.1a3.575,3.575,0,0,0,.429-2.16c0-.293-.008-.6-.018-.895v-.007a11.178,11.178,0,0,0-.156-1.634h0a6.5,6.5,0,0,0-.185-.763c.058-.015.116-.028.176-.04a6.5,6.5,0,0,1,2.794,0,5.156,5.156,0,0,1,.792.114.266.266,0,0,1,.159.124,1.836,1.836,0,0,1-.114.677h0a1.459,1.459,0,0,0-.062.376,2.836,2.836,0,0,0,.049.357c.041.216.1.43.122.65.045.374.005.754.027,1.131a1.523,1.523,0,0,0,.377,1.018A16.273,16.273,0,0,0,665.81,322.1Z" transform="translate(-612.41 -294.053)" fill="#fda8a8"/><path d="M672.6,318.223c-.117.011-.233.023-.352.038a16.193,16.193,0,0,0-3.453.8v-.007l-.156-1.634h0v-.3c0-.167,0-.336-.008-.5a6.5,6.5,0,0,1,2.794,0,5.147,5.147,0,0,1,.792.114c0,.159,0,.319.005.478a2.364,2.364,0,0,0,.04.323h0A1.272,1.272,0,0,0,672.6,318.223Z" transform="translate(-614.982 -294.071)" opacity="0.1"/><ellipse cx="3.256" cy="3.619" rx="3.256" ry="3.619" transform="translate(52.141 17.362)" fill="#fda8a8"/><path d="M641.333,368.992a7.686,7.686,0,0,1,1.331-6.513,3.986,3.986,0,0,1,1.019-1.051,3.119,3.119,0,0,1,1.59-.3,3.205,3.205,0,0,1,1.415.212,3.459,3.459,0,0,1,1.354,1.506,5.117,5.117,0,0,1,.76,2.12c.03.455-.042.917.018,1.369.078.574.365,1.089.483,1.654.064.305.078.621.119.932a9.577,9.577,0,0,0,.271,1.256,47.861,47.861,0,0,0,3.569,9.265,17.576,17.576,0,0,1,1.207,2.654,2.441,2.441,0,0,1,.121,1.317,1.2,1.2,0,0,1-1.62.837.357.357,0,0,1-.169.417.921.921,0,0,1-.466.1l-5.435.16a1.776,1.776,0,0,0-.423.064c-.639.182-.4.489-.467.745-.083.313-.488.288-.769.2.043.457.053,1.015-.478,1.148a.809.809,0,0,1-.415-.016,7.822,7.822,0,0,0-2.952-.264,1.215,1.215,0,0,1-1.045-.2,1.411,1.411,0,0,1-.29-.838c-.541-4.793.572-9.593,1.408-14.328a6.305,6.305,0,0,0-.1-2.3Z" transform="translate(-588.797 -334.365)" fill="#f75842"/><path d="M732.358,352.331a6.327,6.327,0,0,1,.33,1.241c.034.344-.007.693.011,1.038a5.838,5.838,0,0,0,.212,1.128,19.3,19.3,0,0,0,.626,2.1,1.547,1.547,0,0,1,.159.965c-.095.318-.39.515-.474.83a1.046,1.046,0,0,0,.312.928c.224.243.505.417.713.676a4.894,4.894,0,0,1,.511.978,9.153,9.153,0,0,0,.775,1.257L736.6,365a.877.877,0,0,0,.255.274c.352.2.721-.206,1.079-.391a2.8,2.8,0,0,1,1.557-.062,1.23,1.23,0,0,0,1.346-.655,1.6,1.6,0,0,0,.038-.685,7.4,7.4,0,0,0-.6-2.243,8.564,8.564,0,0,1-.546-1.3c-.1-.373-.118-.765-.2-1.143s-.216-.74-.327-1.11c-.787-2.627-.2-5.5-.45-8.257a3.531,3.531,0,0,0-1.16-2.66,3.029,3.029,0,0,0-1.584-.391l-.251-.013-.4-.023a5.957,5.957,0,0,0-1.74.081,2.243,2.243,0,0,0-1.8,1.881A12.78,12.78,0,0,0,732.358,352.331Z" transform="translate(-672.605 -321.006)" fill="#6c63ff"/><path d="M772.09,346.54a12.489,12.489,0,0,1,.161,2.017c.016,1.931.2,3.854.392,5.771l.124,1.272a1.457,1.457,0,0,0,.176.67.391.391,0,0,0,.556.142,5.231,5.231,0,0,0,.062-1.383q-.066-1.476-.131-2.953c-.042-.959-.088-1.918-.193-2.871a20.911,20.911,0,0,0-.363-2.192,2.8,2.8,0,0,0-.126-.437l-.251-.013Z" transform="translate(-709.337 -321.202)" opacity="0.1"/><path d="M669.232,354.339a3.01,3.01,0,0,0-1.617.078,3.317,3.317,0,0,0-1.232,1.046,3.677,3.677,0,0,0-.588.948,4.276,4.276,0,0,0,0,2.463,11.34,11.34,0,0,0,3.08,5.869,11.508,11.508,0,0,0,1.541,1.174,10.049,10.049,0,0,0,2.21,1.145,1.227,1.227,0,0,0,.672.084.566.566,0,0,0,.44-.507,26.156,26.156,0,0,1-3.556-2.852,7.707,7.707,0,0,1-.872-.88c-.4-.5-.687-1.112-1.078-1.628a9.175,9.175,0,0,1-1.056-1.382,3.982,3.982,0,0,1-.328-1.152,4.82,4.82,0,0,1,.137-2.454,1.968,1.968,0,0,1,1.71-1.381,2.8,2.8,0,0,1,1.1.341l2.226,1.045c-.027-.014.128-.443.121-.5-.021-.187-.051-.19-.176-.332a2.817,2.817,0,0,0-.814-.541A6.425,6.425,0,0,0,669.232,354.339Z" transform="translate(-612.229 -328.173)" fill="#6c63ff"/><path d="M649.062,255.454a3.651,3.651,0,0,0,1.706-.978l-.465,2.715a11.666,11.666,0,0,0,1.346-.806,9.547,9.547,0,0,1-.44,3.669,4.768,4.768,0,0,1-2.19,2.7c.9.168,1.717-.554,2.522-1.042.561-.34,1.521.01,2.135-.2a6.344,6.344,0,0,0,1.526-.623c.873-.566,1.071-2.22,1.248-3.326a7.959,7.959,0,0,0-.278-3.326,6.259,6.259,0,0,0-.4-1.1,3.5,3.5,0,0,0-2.175-1.867,3.135,3.135,0,0,0-2.708.515,11.185,11.185,0,0,0-2.183,2.3c-.088.114-.451.521-.331.693.147.207,1.009-.383,1.156-.464C649.492,254.5,649.229,255.408,649.062,255.454Z" transform="translate(-596.49 -235.157)" fill="#ffd566"/><g transform="translate(51.124 29.898)" opacity="0.1"><path d="M645.051,415.186a.811.811,0,0,1-.415-.016,7.823,7.823,0,0,0-2.952-.264,1.213,1.213,0,0,1-1.045-.2,1.41,1.41,0,0,1-.29-.838c-.541-4.793.572-9.593,1.408-14.328a6.3,6.3,0,0,0-.1-2.3l-.039-.152a7.671,7.671,0,0,1,.055-3.945,7.7,7.7,0,0,0-.321,4.73l.04.152a6.306,6.306,0,0,1,.1,2.3c-.833,4.735-1.946,9.538-1.408,14.328a1.417,1.417,0,0,0,.289.838,1.231,1.231,0,0,0,1.045.2,7.822,7.822,0,0,1,2.952.264.81.81,0,0,0,.415.016c.433-.109.506-.5.5-.889A.652.652,0,0,1,645.051,415.186Z" transform="translate(-639.941 -393.15)"/><path d="M710.384,585.911a.357.357,0,0,1-.169.417.92.92,0,0,1-.466.1l-5.435.161a1.766,1.766,0,0,0-.423.063c-.639.182-.4.489-.467.745-.084.313-.488.287-.769.2a1.637,1.637,0,0,1-.074.829c.247.041.513,0,.579-.243s-.172-.563.467-.745a1.784,1.784,0,0,1,.423-.064l5.431-.16a.92.92,0,0,0,.466-.1.357.357,0,0,0,.169-.417,1.2,1.2,0,0,0,1.62-.837,1.567,1.567,0,0,0,.046-.336A1.142,1.142,0,0,1,710.384,585.911Z" transform="translate(-697.068 -566.703)"/></g><path d="M601.739,380.56a36.086,36.086,0,0,1,1.238,3.391,7.406,7.406,0,0,1,.447,2.886,2.637,2.637,0,0,1-1.461,2.274,3.492,3.492,0,0,1-1.121.142,21.413,21.413,0,0,0-2.7.243,10.756,10.756,0,0,1-1.259.155c-.6.022-1.193-.082-1.788-.028-.963.087-1.877.587-2.843.587a.659.659,0,0,1-.343-.07.89.89,0,0,1-.314-.546,2.019,2.019,0,0,1-.012-1.457,1.689,1.689,0,0,1,1.472-.685q1.869-.147,3.743-.205a4.549,4.549,0,0,0,3.047-.828.475.475,0,0,0,.133-.17.6.6,0,0,0-.011-.349,16.839,16.839,0,0,1-.417-4.358.7.7,0,0,1,.088-.374.543.543,0,0,1,.279-.18,3.693,3.693,0,0,1,2.277-.07" transform="translate(-544.59 -351.894)" fill="#fda8a8"/><path d="M679.876,365.732a.672.672,0,0,0-.319.261c.035-.408-.012-.82-.005-1.231a2.022,2.022,0,0,1,.309-1.158,1.583,1.583,0,0,1,1.273-.566,2.513,2.513,0,0,1,1.895.719,2.24,2.24,0,0,1,.594,1.272c.016.134.069.637-.057.723-.11.076-.528-.187-.663-.229A4.033,4.033,0,0,0,679.876,365.732Z" transform="translate(-624.942 -336.085)" fill="#f75842"/><ellipse cx="0.754" cy="0.78" rx="0.754" ry="0.78" transform="translate(40.718 4.683)" fill="#6c63ff" opacity="0.1"/><ellipse cy="0.78" ry="0.78" transform="translate(45.242 18.732)" fill="#6c63ff" opacity="0.1"/><ellipse cx="0.754" cy="1.561" rx="0.754" ry="1.561" transform="translate(33.178 4.683)" fill="#6c63ff" opacity="0.1"/><ellipse cx="1.508" cy="1.561" rx="1.508" ry="1.561" transform="translate(13.573 35.903)" fill="#6c63ff" opacity="0.1"/><ellipse cx="0.754" cy="0.78" rx="0.754" ry="0.78" transform="translate(78.42 9.366)" fill="#6c63ff" opacity="0.1"/><ellipse cx="2.262" cy="2.341" rx="2.262" ry="2.341" transform="translate(76.911 17.171)" fill="#6c63ff" opacity="0.1"/><ellipse cy="0.78" ry="0.78" transform="translate(82.944 12.488)" fill="#6c63ff" opacity="0.1"/><ellipse cx="0.754" rx="0.754" transform="translate(76.911 24.976)" fill="#6c63ff" opacity="0.1"/><ellipse cx="0.754" cy="0.78" rx="0.754" ry="0.78" transform="translate(39.21 10.927)" fill="#6c63ff" opacity="0.1"/><ellipse cx="0.754" cy="0.78" rx="0.754" ry="0.78" transform="translate(16.589 45.269)" fill="#6c63ff" opacity="0.1"/><ellipse cx="0.754" cy="0.78" rx="0.754" ry="0.78" transform="translate(15.081 29.659)" fill="#6c63ff" opacity="0.1"/><ellipse cx="0.754" rx="0.754" transform="translate(49.766 4.683)" fill="#6c63ff" opacity="0.1"/><ellipse cx="0.754" cy="0.78" rx="0.754" ry="0.78" transform="translate(51.274 10.927)" fill="#6c63ff" opacity="0.1"/></g></g></svg>