<svg xmlns="http://www.w3.org/2000/svg" xmlns:xlink="http://www.w3.org/1999/xlink" width="127" height="127" viewBox="0 0 127 127"><defs><filter id="a" x="0" y="0" width="127" height="127" filterUnits="userSpaceOnUse"><feOffset dy="2" input="SourceAlpha"/><feGaussianBlur stdDeviation="3" result="b"/><feFlood flood-opacity="0.2"/><feComposite operator="in" in2="b"/><feComposite in="SourceGraphic"/></filter></defs><g transform="translate(-202 -204)"><g transform="matrix(1, 0, 0, 1, 202, 204)" filter="url(#a)"><rect width="109" height="109" rx="8" transform="translate(9 7)" fill="#f8f8ff"/></g><g transform="translate(222 236)"><path d="M110.418,190.335a19.283,19.283,0,0,1-1.232,2.93,12.865,12.865,0,0,1-.746,1.269l-.008.011H25l.011-.011c.075-.072.516-.513,1.2-1.269.492-.541,1.109-1.245,1.8-2.091,5.667-6.893,16.553-23.207,7.487-38.153-8.428-13.894.646-16.415,6.633-16.709a14.186,14.186,0,0,1,6.746,1.364,50.733,50.733,0,0,0,14.406,4.205c.216.03.434.059.655.086a51.064,51.064,0,0,0,10.494.236h0c.1-.007.206-.017.311-.026a51.41,51.41,0,0,0,10.264-1.963c.218-.066.434-.128.649-.19,11.233-3.214,21.589,7.739,19,20.117-.957,4.578-.714,9.458,2.477,13.406A17.166,17.166,0,0,1,110.418,190.335Z" transform="translate(-25 -136.295)" fill="#6c63ff" opacity="0.1"/><path d="M110.557,703.163a19.284,19.284,0,0,1-1.232,2.93,12.879,12.879,0,0,1-.746,1.269H25.15c.075-.072.516-.513,1.2-1.269.492-.541,1.109-1.245,1.8-2.091l8.793-2.247a1.4,1.4,0,0,1,.345-.044l9.374-.017h.01l4.643-.007h.011l3.919-.005h5.193l10.767-.019H75.84l1.849-.026H78.3l5.378-.009h2.543l6.212-.01h1.85l5.884-.01,4.967-.007a1.442,1.442,0,0,1,.411.06Z" transform="translate(-25.139 -649.123)" fill="#454b69"/><path d="M26.351,750h82.974a12.851,12.851,0,0,1-.746,1.269H25.15C25.224,751.192,25.664,750.751,26.351,750Z" transform="translate(-25.139 -693.03)" fill="none"/><path d="M26.351,750h82.974a12.851,12.851,0,0,1-.746,1.269H25.15C25.224,751.192,25.664,750.751,26.351,750Z" transform="translate(-25.139 -693.03)" opacity="0.4"/><path d="M493.722,178.334l-.167.04-7.534,1.79a14.9,14.9,0,0,1-11.293-.41c-.875-.293-1.8-.41-2.1-1.621-.409-1.671.257-4.145.414-5.838a20.1,20.1,0,0,0-.029-5.007,10.644,10.644,0,0,0-.234-1.09,6.345,6.345,0,0,1-.462-3,4.054,4.054,0,0,1,1.239-1.881,8.439,8.439,0,0,0,2.425-3.7c.2-.743.232-1.542.442-2.279a4.885,4.885,0,0,1,2.514-3,7.814,7.814,0,0,1,3.541-.673,19.478,19.478,0,0,1,3.172.261,7.839,7.839,0,0,1,3.314,1.195,5.051,5.051,0,0,1,2.093,3.262c.333,1.987-.591,4.1-.1,6.034a16.653,16.653,0,0,0,1.226,2.657,7.683,7.683,0,0,1,.375,4.92c-.479,1.835-1.651,3.692-1.051,5.471.382,1.132,1.358,1.736,2.038,2.633Q493.643,178.213,493.722,178.334Z" transform="translate(-438.677 -150.234)" fill="#454b69"/><path d="M496.572,288.176v.274l-7.534,1.79a14.9,14.9,0,0,1-11.293-.41c-.875-.293-1.8-.41-2.1-1.621-.409-1.671.257-4.145.414-5.838.15-1.662,2.462-7.728,2.194-9.37l13.813.743c.093.907,3.744,5.459,3.516,6.329-.479,1.835-1.652,3.692-1.051,5.471C494.916,286.675,495.892,287.279,496.572,288.176Z" transform="translate(-441.694 -260.31)" opacity="0.1"/><path d="M512.693,333.658a3.081,3.081,0,0,1-.112,1.708,2.174,2.174,0,0,1-1.621,1.039l-2.14.529a.749.749,0,0,0-.409.2,1,1,0,0,0-.191.578,8.035,8.035,0,0,0,.438,2.815c.505,1.848.929,3.735,1.568,5.519a12.034,12.034,0,0,0,2.767,4.678,4.619,4.619,0,0,0,4.44,1.361,7.38,7.38,0,0,0,3.373-2.806,10.494,10.494,0,0,0,1.884-3.46,14.952,14.952,0,0,0,.427-2.839q.19-2.207.38-4.415a3.159,3.159,0,0,0-.264-2,2,2,0,0,0-.6-.532,23.393,23.393,0,0,1-2.45-1.635,4.846,4.846,0,0,1-1.674-2.655,13.418,13.418,0,0,0-.351-2.013,2.342,2.342,0,0,0-1.427-1.375,3.958,3.958,0,0,0-1.853-.093c-.618.086-3,.307-3.259,1.17-.137.464.432,1.46.568,1.917A15.966,15.966,0,0,1,512.693,333.658Z" transform="translate(-471.928 -310.386)" fill="#efb7b9"/><path d="M512.693,333.658a3.081,3.081,0,0,1-.112,1.708,2.174,2.174,0,0,1-1.621,1.039l-2.14.529a.749.749,0,0,0-.409.2,1,1,0,0,0-.191.578,8.035,8.035,0,0,0,.438,2.815c.505,1.848.929,3.735,1.568,5.519a12.034,12.034,0,0,0,2.767,4.678,4.619,4.619,0,0,0,4.44,1.361,7.38,7.38,0,0,0,3.373-2.806,10.494,10.494,0,0,0,1.884-3.46,14.952,14.952,0,0,0,.427-2.839q.19-2.207.38-4.415a3.159,3.159,0,0,0-.264-2,2,2,0,0,0-.6-.532,23.393,23.393,0,0,1-2.45-1.635,4.846,4.846,0,0,1-1.674-2.655,13.418,13.418,0,0,0-.351-2.013,2.342,2.342,0,0,0-1.427-1.375,3.958,3.958,0,0,0-1.853-.093c-.618.086-3,.307-3.259,1.17-.137.464.432,1.46.568,1.917A15.966,15.966,0,0,1,512.693,333.658Z" transform="translate(-471.928 -310.386)" opacity="0.1"/><path d="M505.813,406.686l1.255-3.284a12.5,12.5,0,0,0,1.126-4.856c-.012-.338-.015-.76.225-.913a.533.533,0,0,1,.33-.052,11.15,11.15,0,0,1,3.867.967,1.5,1.5,0,0,1,.657.47,2.2,2.2,0,0,1,.295.863,30.684,30.684,0,0,1,.43,3.144,61.339,61.339,0,0,1,0,7.89l-.333,8.023a.925.925,0,0,1-.055.331.555.555,0,0,1-.436.283,7.675,7.675,0,0,1-1.957.078c-4.594-.215-9.213-.546-13.777.143q.031-1.252-.032-2.506a67.487,67.487,0,0,0-1.681-10.63c-.433-2.042-.853-4.27-.155-6.194a2.777,2.777,0,0,1,.435-.819,2.333,2.333,0,0,1,1.1-.684,5.747,5.747,0,0,1,2.124-.3l4.733,12.743c.216.583.394,1.2.61,1.772.194-.994-.039-2.159.194-3.237A23.417,23.417,0,0,1,505.813,406.686Z" transform="translate(-459.899 -373.319)" fill="#fff"/><path d="M438.6,413.314a2.735,2.735,0,0,0,2.252-1.229,9.216,9.216,0,0,0,1.292-2.692,31.23,31.23,0,0,0,1.11-4.28,12.7,12.7,0,0,0,.23-3.792c-.215-1.741-1.011-3.322-1.147-5.075a1.079,1.079,0,0,1,.191-.849.678.678,0,0,1,.438-.141c1.416-.1,2.971-.085,4.068,1.027.334.338.605.76.932,1.108.778.835,1.877,1.261,2.376,2.37a9.516,9.516,0,0,1,.379,1.239,12.26,12.26,0,0,0,1.276,2.7c-.478,2.5-1.028,4.992-1.506,7.488a38.875,38.875,0,0,1-1,4.335,7.382,7.382,0,0,0-.562,2.841,7.759,7.759,0,0,0,.23,1.131,15.887,15.887,0,0,1,.442,4.041l-21.421.065a11.677,11.677,0,0,0,1.223-6.265,8.127,8.127,0,0,0-.676-3.047,8.245,8.245,0,0,0-3.056-3.179c-.826-.557-1.712,2.577-2.6,2.218.144-1.261.21-6.127.15-7.4a4.174,4.174,0,0,1,.054-1.24c.071-.272.2-.515.288-.78.352-1.059.016-2.414.586-3.315.393-.627,1.083-.8,1.644-1.191a10.685,10.685,0,0,0,1.522-1.554,6.246,6.246,0,0,1,3.465-1.913,6.3,6.3,0,0,1,.661,2.414c.038.539.01,1.086.071,1.623a9.353,9.353,0,0,0,.568,2.081,84.184,84.184,0,0,0,3.283,8.245,8.8,8.8,0,0,0,1.272,2.064A2.628,2.628,0,0,0,438.6,413.314Z" transform="translate(-393.177 -371.18)" fill="#6c63ff"/><path d="M438.6,413.314a2.735,2.735,0,0,0,2.252-1.229,9.216,9.216,0,0,0,1.292-2.692,31.23,31.23,0,0,0,1.11-4.28,12.7,12.7,0,0,0,.23-3.792c-.215-1.741-1.011-3.322-1.147-5.075a1.079,1.079,0,0,1,.191-.849.678.678,0,0,1,.438-.141c1.416-.1,2.971-.085,4.068,1.027.334.338.605.76.932,1.108.778.835,1.877,1.261,2.376,2.37a9.516,9.516,0,0,1,.379,1.239,12.26,12.26,0,0,0,1.276,2.7c-.478,2.5-1.028,4.992-1.506,7.488a38.875,38.875,0,0,1-1,4.335,7.382,7.382,0,0,0-.562,2.841,7.759,7.759,0,0,0,.23,1.131,15.887,15.887,0,0,1,.442,4.041l-21.421.065a11.677,11.677,0,0,0,1.223-6.265,8.127,8.127,0,0,0-.676-3.047,8.245,8.245,0,0,0-3.056-3.179c-.826-.557-1.712,2.577-2.6,2.218.144-1.261.21-6.127.15-7.4a4.174,4.174,0,0,1,.054-1.24c.071-.272.2-.515.288-.78.352-1.059.016-2.414.586-3.315.393-.627,1.083-.8,1.644-1.191a10.685,10.685,0,0,0,1.522-1.554,6.246,6.246,0,0,1,3.465-1.913,6.3,6.3,0,0,1,.661,2.414c.038.539.01,1.086.071,1.623a9.353,9.353,0,0,0,.568,2.081,84.184,84.184,0,0,0,3.283,8.245,8.8,8.8,0,0,0,1.272,2.064A2.628,2.628,0,0,0,438.6,413.314Z" transform="translate(-393.177 -371.18)" opacity="0.1"/><ellipse cx="6.435" cy="7.957" rx="6.435" ry="7.957" transform="translate(37.851 7.147)" fill="#efb7b9"/><path d="M507.112,195.329a12.525,12.525,0,0,0-1.3-5.9,13.465,13.465,0,0,1-.966-2.707,4.1,4.1,0,0,1,.348-2.839,4.837,4.837,0,0,1,1.661-1.43,9.764,9.764,0,0,0,4-4.941c-.422.284-.312,1.132.06,1.506a3.44,3.44,0,0,0,1.338.625c1.669.65,2.671,2.709,3.474,4.632a2.59,2.59,0,0,1,.263,1,2.356,2.356,0,0,1-.269.968,11.682,11.682,0,0,0-1.061,2.687,10.3,10.3,0,0,0,1.714,6.545,2.183,2.183,0,0,0,2.725.709c-.885-1.882-1.8-3.984-1.456-6.117.167-1.021.615-1.949.806-2.965a12.021,12.021,0,0,0-.835-5.78l-1.775-5.519a4.492,4.492,0,0,0-1.2-2.222,2.783,2.783,0,0,0-1.422-.464,8.407,8.407,0,0,0-4.7.613c-2.689,1.328-4.375,4.6-5.713,7.78a7.615,7.615,0,0,0-.78,3.035,10.245,10.245,0,0,0,.25,1.735,40.812,40.812,0,0,1,.486,7.153,13.8,13.8,0,0,1-.711,5.25c.892.219,2.185.81,3.068.378C506.258,198.495,506.967,196.761,507.112,195.329Z" transform="translate(-466.203 -169.62)" fill="#454b69"/><g transform="translate(35.807 7.742)" opacity="0.1"><path d="M502.7,301.207q0-.393,0-.793a40.8,40.8,0,0,0-.486-7.153q-.147-.682-.23-1.381a4.421,4.421,0,0,0-.02.482,10.243,10.243,0,0,0,.25,1.735A40.463,40.463,0,0,1,502.7,301.207Z" transform="translate(-501.966 -285.18)"/><path d="M710.034,308.4a6.924,6.924,0,0,0,.1-1.654,6.327,6.327,0,0,1-.1.819c-.191,1.021-.639,1.941-.806,2.965a6.062,6.062,0,0,0-.06,1.372q.018-.27.06-.537C709.4,310.345,709.844,309.422,710.034,308.4Z" transform="translate(-693.6 -298.669)"/><path d="M549.59,227.182a1.628,1.628,0,0,0,.058-.409,2.619,2.619,0,0,0-.263-1c-.8-1.923-1.8-3.98-3.474-4.632a3.445,3.445,0,0,1-1.338-.625,1.3,1.3,0,0,1-.329-.817,9.969,9.969,0,0,1-3.727,4.253,4.843,4.843,0,0,0-1.661,1.43,3.763,3.763,0,0,0-.43,2.247,3.271,3.271,0,0,1,.43-1.412,4.838,4.838,0,0,1,1.661-1.43,9.968,9.968,0,0,0,3.727-4.253,1.3,1.3,0,0,0,.329.817,3.5,3.5,0,0,0,1.338.625c1.67.65,2.671,2.709,3.474,4.632A4.14,4.14,0,0,1,549.59,227.182Z" transform="translate(-535.672 -219.7)"/><path d="M671.141,355.123a7.872,7.872,0,0,1-1.419-3.167,11.043,11.043,0,0,1-.361-2.015,8.934,8.934,0,0,0,.361,2.851,7.843,7.843,0,0,0,1.419,3.167,2.183,2.183,0,0,0,2.725.709c-.107-.226-.213-.455-.318-.686A2.31,2.31,0,0,1,671.141,355.123Z" transform="translate(-656.781 -337.85)"/><path d="M507.4,401.863c-.145,1.432-.854,3.165-2.008,3.732-.8.393-1.941-.059-2.811-.308q-.112.391-.257.766c.892.219,2.185.81,3.068.378,1.154-.566,1.863-2.3,2.008-3.732a7.983,7.983,0,0,0,.016-1.079C507.408,401.7,507.4,401.783,507.4,401.863Z" transform="translate(-502.293 -384.733)"/></g><path d="M625.587,647.586a8,8,0,0,0-3.487-.372,4.519,4.519,0,0,0-1.83,1.077,3.572,3.572,0,0,1,.854.99,4.526,4.526,0,0,1,.269.916,9.461,9.461,0,0,1,.263,1.7,3.071,3.071,0,0,1-.354,1.65,10.5,10.5,0,0,0,4.306-.7,1.068,1.068,0,0,0,.456-.228,1.379,1.379,0,0,0,.293-.964,8,8,0,0,0-.291-1.863C625.891,649.064,625.762,648.312,625.587,647.586Z" transform="translate(-575.582 -599.697)" fill="#fff"/><path d="M686.621,482.932c.576.093,1.022.667,1.351,1.258a21.011,21.011,0,0,1,1.763,5.56q.826,3.59,1.942,7.066a11.943,11.943,0,0,0,.582,1.55,4.779,4.779,0,0,1,.492,1.187,2.9,2.9,0,0,1-1.236,2.629,4.566,4.566,0,0,1-1.265.754,6.243,6.243,0,0,1-1.345.284l-4.167.557a22.078,22.078,0,0,1-5.772.267c-.121-.52.116-.888.1-1.429a3.76,3.76,0,0,0-.273-1.1,8.39,8.39,0,0,1-.445-2,3.287,3.287,0,0,0-.107-.749c-.078-.236-.245-.447-.451-.464,1.126-.138,1.981-.4,3.107-.54a2.37,2.37,0,0,0,1.21-.385,3.192,3.192,0,0,0,.887-1.551,9.969,9.969,0,0,0,.545-4.666,23.321,23.321,0,0,1-.793-3.784,6.752,6.752,0,0,1,.469-2.246,3.694,3.694,0,0,1,1.209-1.907A3.373,3.373,0,0,1,686.621,482.932Z" transform="translate(-628.783 -450.7)" fill="#6c63ff"/><path d="M686.621,482.932c.576.093,1.022.667,1.351,1.258a21.011,21.011,0,0,1,1.763,5.56q.826,3.59,1.942,7.066a11.943,11.943,0,0,0,.582,1.55,4.779,4.779,0,0,1,.492,1.187,2.9,2.9,0,0,1-1.236,2.629,4.566,4.566,0,0,1-1.265.754,6.243,6.243,0,0,1-1.345.284l-4.167.557a22.078,22.078,0,0,1-5.772.267c-.121-.52.116-.888.1-1.429a3.76,3.76,0,0,0-.273-1.1,8.39,8.39,0,0,1-.445-2,3.287,3.287,0,0,0-.107-.749c-.078-.236-.245-.447-.451-.464,1.126-.138,1.981-.4,3.107-.54a2.37,2.37,0,0,0,1.21-.385,3.192,3.192,0,0,0,.887-1.551,9.969,9.969,0,0,0,.545-4.666,23.321,23.321,0,0,1-.793-3.784,6.752,6.752,0,0,1,.469-2.246,3.694,3.694,0,0,1,1.209-1.907A3.373,3.373,0,0,1,686.621,482.932Z" transform="translate(-628.783 -450.7)" opacity="0.08"/><path d="M440.831,329.954a8.013,8.013,0,0,0,.557-2.494,10.358,10.358,0,0,0-.536-2.721,19.01,19.01,0,0,1-.579-3.36.562.562,0,0,1,.038-.322.415.415,0,0,1,.288-.16,2.482,2.482,0,0,0,1.236-1.188A13.946,13.946,0,0,0,443.1,317.1c.248-.684.585-1.519,1.191-1.525q-.366,2.128-.907,4.2c.634-.2,1.237-.492,1.872-.693a.923.923,0,0,1,.384-.063c.38.049.613.685.392,1.07.31.449.826.57,1.231.878s.7,1.071.336,1.458a1.105,1.105,0,0,0-.211.225c-.174.332.252.714.217,1.107a.466.466,0,0,1-.616.387,2.713,2.713,0,0,1-.676-.491.6.6,0,0,0-.738-.1,8.8,8.8,0,0,1-.427,2.559c-.112.291-.255.563-.345.864a5.159,5.159,0,0,0-.159,1.015l-.273,3.081A3.814,3.814,0,0,1,440.831,329.954Z" transform="translate(-409.09 -298.928)" fill="#efb7b9"/><path d="M440.158,462.867l-.24-2a4.015,4.015,0,0,1-.038-.494,3.811,3.811,0,0,1,.325-1.329,8.269,8.269,0,0,0,4.219,1.038.583.583,0,0,0,.533-.209,1.817,1.817,0,0,1,.15,1.372c-.106.449-.309.854-.444,1.292a2.042,2.042,0,0,1-.254.635.966.966,0,0,1-.83.315,4.336,4.336,0,0,1-.937-.11A6.114,6.114,0,0,0,440.158,462.867Z" transform="translate(-408.734 -429.08)" fill="#fff"/><path d="M419.446,489.964a27.335,27.335,0,0,1-3.065-.613,5.089,5.089,0,0,0-1.507-.248,1.488,1.488,0,0,1-.976-.1,7.123,7.123,0,0,1-.038,3.615c-.2.7-.506,1.345-.653,2.062-.306,1.5.114,3.134-.269,4.606a1.263,1.263,0,0,1-.231.512c-.117.133-.277.2-.385.345a1.394,1.394,0,0,0-.17.819l-.007,2.557a10.612,10.612,0,0,0,.708,4.734,3.355,3.355,0,0,0,3.914,1.916,2.729,2.729,0,0,0,1.063-.643,6.23,6.23,0,0,0,1.14-1.91,9.372,9.372,0,0,0,.872-2.63,9.22,9.22,0,0,0-.024-2.014c-.339-3.713-1.076-7.395-.917-11.122A3.9,3.9,0,0,1,419.446,489.964Z" transform="translate(-383.08 -456.259)" fill="#6c63ff"/><path d="M454.8,661.351a7.355,7.355,0,0,1-1.567,0c-.375-.056-.742-.17-1.114-.248a6.219,6.219,0,0,0-5.75,1.975,1.247,1.247,0,0,0-.42,1.2c.171.459.694.446,1.1.36a3.515,3.515,0,0,0-1.126,1.089.93.93,0,0,0-.2.591c.046.46.55.543.923.5a.436.436,0,0,0,.115.557.635.635,0,0,0,.522.047,3.4,3.4,0,0,0,1.108-.474.571.571,0,0,0,.225.607.765.765,0,0,0,.579.066c.917-.186,1.683-.975,2.578-1.285,1.431-.495,2.928.294,4.415.35a2.56,2.56,0,0,0,1.367-.278c.52-.293.94-.841,1.489-1.036.61-.215,1.311.032,1.869-.34.406-.27.04-2.352-.064-2.753-.19-.733-.381-1.22-1.014-1.294A27.713,27.713,0,0,0,454.8,661.351Z" transform="translate(-414.137 -612.236)" fill="#efb7b9"/><path d="M619.88,655.886s2.424,2.537,1.026,5.305l2.7-1.154v-2.422c0-.115-1.026-1.844-1.026-1.844l-1.212-.231Z" transform="translate(-575.221 -607.339)" fill="#fff"/><path d="M233.667,521.32h.909a2.135,2.135,0,0,1,1.877,2.321v3.445H231.79v-3.445A2.135,2.135,0,0,1,233.667,521.32Z" transform="translate(-214.389 -472.929)" fill="#3f3d56"/><path d="M233.667,521.32h.909a2.135,2.135,0,0,1,1.877,2.321v3.445H231.79v-3.445A2.135,2.135,0,0,1,233.667,521.32Z" transform="translate(-214.389 -472.929)" opacity="0.1"/><ellipse cx="0.373" cy="0.461" rx="0.373" ry="0.461" transform="translate(19.173 48.736)" fill="#3f3d56"/><ellipse cx="0.373" cy="0.461" rx="0.373" ry="0.461" transform="translate(19.173 48.159)" fill="#3f3d56"/><ellipse cx="0.373" cy="0.461" rx="0.373" ry="0.461" transform="translate(19.173 47.583)" fill="#3f3d56"/><ellipse cx="0.373" cy="0.461" rx="0.373" ry="0.461" transform="translate(19.173 47.006)" fill="#3f3d56"/><ellipse cx="0.373" cy="0.461" rx="0.373" ry="0.461" transform="translate(19.173 46.43)" fill="#3f3d56"/><ellipse cx="0.373" cy="0.461" rx="0.373" ry="0.461" transform="translate(19.173 45.853)" fill="#3f3d56"/><ellipse cx="0.373" cy="0.461" rx="0.373" ry="0.461" transform="translate(19.173 45.276)" fill="#3f3d56"/><ellipse cx="0.373" cy="0.461" rx="0.373" ry="0.461" transform="translate(19.733 45.507)" fill="#3f3d56"/><ellipse cx="0.373" cy="0.461" rx="0.373" ry="0.461" transform="translate(20.106 45.276)" fill="#3f3d56"/><ellipse cx="0.373" cy="0.461" rx="0.373" ry="0.461" transform="translate(20.479 45.046)" fill="#3f3d56"/><ellipse cx="0.373" cy="0.461" rx="0.373" ry="0.461" transform="translate(19.173 44.7)" fill="#3f3d56"/><ellipse cx="0.373" cy="0.461" rx="0.373" ry="0.461" transform="translate(19.173 44.123)" fill="#3f3d56"/><ellipse cx="0.373" cy="0.461" rx="0.373" ry="0.461" transform="translate(19.173 43.547)" fill="#3f3d56"/><ellipse cx="0.373" cy="0.461" rx="0.373" ry="0.461" transform="translate(19.173 42.97)" fill="#3f3d56"/><path d="M267.383,572.231q-.14.025-.279.036a2.486,2.486,0,0,0,.24-.3,2.154,2.154,0,0,0-.225-.541.669.669,0,0,1-.3.117c-.092.017-.185.029-.279.037a5.409,5.409,0,0,0,.357-.464,1.359,1.359,0,0,0-1.992-.136,2.254,2.254,0,0,0-.52,2.382,1.532,1.532,0,0,0,1.777,1.121,1.909,1.909,0,0,0,1.255-1.918,2.362,2.362,0,0,0-.024-.337Z" transform="translate(-246.287 -530.287)" fill="#6c63ff"/><path d="M304.265,610.611a.635.635,0,0,1-.314.129c-.092.017-.185.03-.279.037a3.173,3.173,0,0,0,.276-.355.912.912,0,0,0-1.113.722,1.273,1.273,0,0,0,.477,1.438.847.847,0,0,0,1.2-.452,1.338,1.338,0,0,0-.251-1.523Z" transform="translate(-281.926 -566.376)" fill="#6c63ff"/><ellipse cx="0.373" cy="0.461" rx="0.373" ry="0.461" transform="translate(18.613 45.507)" fill="#3f3d56"/><ellipse cx="0.373" cy="0.461" rx="0.373" ry="0.461" transform="translate(18.24 45.276)" fill="#3f3d56"/><ellipse cx="0.373" cy="0.461" rx="0.373" ry="0.461" transform="translate(17.867 45.046)" fill="#3f3d56"/><path d="M243.45,610.612a.635.635,0,0,0,.314.129,2.8,2.8,0,0,0,.279.037,3.091,3.091,0,0,1-.276-.354.912.912,0,0,1,1.113.722,1.273,1.273,0,0,1-.477,1.438.847.847,0,0,1-1.2-.451,1.338,1.338,0,0,1,.25-1.523Z" transform="translate(-226.697 -566.376)" fill="#6c63ff"/><path d="M233.639,525h.909a2.134,2.134,0,0,1,1.877,2.321v3.051a.362.362,0,0,1-.318.393h-4.028a.362.362,0,0,1-.318-.393v-3.051a2.625,2.625,0,0,1,.55-1.642A1.715,1.715,0,0,1,233.639,525Z" transform="translate(-214.361 -476.268)" fill="#3f3d56"/><g transform="translate(17.983 40.343)" opacity="0.1"><path d="M304.86,589.49a1.594,1.594,0,0,1-.12.141.987.987,0,0,0,.128-.014C304.866,589.575,304.864,589.532,304.86,589.49Z" transform="translate(-301.722 -587.763)"/><path d="M297.28,579.794c.094-.007.186-.019.279-.036a.768.768,0,0,0,.242-.082,2.182,2.182,0,0,0-.131-.266.513.513,0,0,1-.15.079A2.5,2.5,0,0,1,297.28,579.794Z" transform="translate(-294.822 -578.619)"/><path d="M264.7,573.051a2.066,2.066,0,0,1,.824-1.721,1.329,1.329,0,0,1,1.616.072l.024-.031a1.384,1.384,0,0,0-2.235.181,2.3,2.3,0,0,0,.147,2.764A2.244,2.244,0,0,1,264.7,573.051Z" transform="translate(-264.54 -570.885)"/></g><g transform="translate(20.852 44.008)" opacity="0.1"><path d="M314.68,613.189a2.791,2.791,0,0,0,.279-.036.637.637,0,0,0,.314-.13,1.237,1.237,0,0,1,.375.817c0-.04.005-.081.005-.122a1.258,1.258,0,0,0-.375-.928.636.636,0,0,1-.314.129l-.075.012A2.184,2.184,0,0,1,314.68,613.189Z" transform="translate(-313.785 -612.565)"/><path d="M303.692,610.6a.637.637,0,0,1,.093.008c.049-.064.1-.133.146-.2a.8.8,0,0,0-.808.2,1.265,1.265,0,0,0-.363.914.971.971,0,0,0,0,.115A1.034,1.034,0,0,1,303.692,610.6Z" transform="translate(-302.76 -610.37)"/></g><g transform="translate(16.373 44.008)" opacity="0.1"><path d="M244.063,613.189a2.792,2.792,0,0,1-.279-.036.637.637,0,0,1-.314-.13,1.237,1.237,0,0,0-.375.817c0-.04-.005-.081-.005-.122a1.258,1.258,0,0,1,.375-.928.636.636,0,0,0,.314.129l.075.012A2.041,2.041,0,0,0,244.063,613.189Z" transform="translate(-243.09 -612.565)"/><path d="M252.609,610.6a.646.646,0,0,0-.094.008c-.048-.064-.1-.133-.145-.2a.8.8,0,0,1,.808.2,1.265,1.265,0,0,1,.363.914.984.984,0,0,1,0,.115A1.034,1.034,0,0,0,252.609,610.6Z" transform="translate(-251.673 -610.37)"/></g><path d="M127.646,685.912h-7.335a.354.354,0,0,1-.312-.385v-4.292a.413.413,0,0,1,.145-.326.261.261,0,0,1,.3-.023,6.287,6.287,0,0,0,7.057.02.261.261,0,0,1,.3.018.413.413,0,0,1,.148.327v4.27A.357.357,0,0,1,127.646,685.912Z" transform="translate(-112.868 -630.298)" fill="#6c63ff"/><path d="M127.646,685.912h-7.335a.354.354,0,0,1-.312-.385v-4.292a.413.413,0,0,1,.145-.326.261.261,0,0,1,.3-.023,6.287,6.287,0,0,0,7.057.02.261.261,0,0,1,.3.018.413.413,0,0,1,.148.327v4.27A.357.357,0,0,1,127.646,685.912Z" transform="translate(-112.868 -630.298)" opacity="0.1"/><ellipse cx="0.434" cy="0.703" rx="0.434" ry="0.703" transform="translate(10.626 50.945)" fill="#3f3d56"/><ellipse cx="0.434" cy="0.703" rx="0.434" ry="0.703" transform="translate(10.626 50.086)" fill="#3f3d56"/><ellipse cx="0.434" cy="0.703" rx="0.434" ry="0.703" transform="translate(10.626 49.227)" fill="#3f3d56"/><ellipse cx="0.434" cy="0.703" rx="0.434" ry="0.703" transform="translate(10.626 48.368)" fill="#3f3d56"/><ellipse cx="0.434" cy="0.703" rx="0.434" ry="0.703" transform="translate(10.626 47.509)" fill="#3f3d56"/><ellipse cx="0.434" cy="0.703" rx="0.434" ry="0.703" transform="translate(10.626 46.649)" fill="#3f3d56"/><ellipse cx="0.434" cy="0.703" rx="0.434" ry="0.703" transform="translate(10.626 45.79)" fill="#3f3d56"/><path d="M148.227,533.024a2.832,2.832,0,0,0,.161-.294l-1.141-.232,1.234.011a3.135,3.135,0,0,0,.04-2.042l-1.655,1.062,1.527-1.392a2.024,2.024,0,0,0-1.9-1.282,2.133,2.133,0,0,0-1.793,1.5,3.079,3.079,0,0,0,.257,2.658,2.658,2.658,0,0,0-.237.469l1.48.962-1.577-.659a3.074,3.074,0,0,0,.336,2.414,3.026,3.026,0,0,0,.224,3.48,1.8,1.8,0,0,0,2.823,0,3.026,3.026,0,0,0,.224-3.48,3.063,3.063,0,0,0,0-3.18Z" transform="translate(-135.539 -492.41)" fill="#6c63ff"/><path d="M144.49,590.56a2.967,2.967,0,0,0,.445,1.59,3.026,3.026,0,0,0,.224,3.48,1.8,1.8,0,0,0,2.823,0,3.026,3.026,0,0,0,.224-3.48C148.483,591.713,144.49,590.271,144.49,590.56Z" transform="translate(-135.519 -548.356)" opacity="0.1"/><path d="M127.646,686.139h-7.335a.354.354,0,0,1-.312-.385v-4.52a.413.413,0,0,1,.145-.326.261.261,0,0,1,.3-.023c2.107,1.237,3.778,2.678,7.057.02.194-.158.45.058.45.344v4.5A.356.356,0,0,1,127.646,686.139Z" transform="translate(-112.868 -630.298)" fill="#6c63ff"/><path d="M716.663,542.043l-10.821,1.77-.541.088-5.29-3.494v-.818l16.532-2.23Z" transform="translate(-647.459 -487.481)" fill="#9c9ca1"/><path d="M740.85,557.489l11.723-1.709-.12,2.676-9.131.828Z" transform="translate(-685.233 -504.191)" fill="#939498"/><path d="M730.832,700.985v.878l-.541.093-5.291-3.5v-.818l5.05,3.342A2.712,2.712,0,0,0,730.832,700.985Z" transform="translate(-672.449 -645.531)" opacity="0.4"/><path d="M800.227,567.363,797.8,581.292a1.041,1.041,0,0,0,.174.791.648.648,0,0,0,.623.279l15.37-2.516a.778.778,0,0,0,.588-.6l3.316-12.365a1.067,1.067,0,0,0-.11-.818.677.677,0,0,0-.607-.352l-16.255.954A.784.784,0,0,0,800.227,567.363Z" transform="translate(-739.767 -525.847)" fill="#3f3d56"/><path d="M.8,0c.442,0,.8.177.8.4S1.237.82.8.824,0,.647,0,.42.362,0,.8,0Z" transform="translate(67.995 47.352) rotate(-84)" fill="#fff"/></g></g></svg>