<svg xmlns="http://www.w3.org/2000/svg" xmlns:xlink="http://www.w3.org/1999/xlink" width="127" height="127" viewBox="0 0 127 127"><defs><filter id="a" x="0" y="0" width="127" height="127" filterUnits="userSpaceOnUse"><feOffset dy="2" input="SourceAlpha"/><feGaussianBlur stdDeviation="3" result="b"/><feFlood flood-opacity="0.2"/><feComposite operator="in" in2="b"/><feComposite in="SourceGraphic"/></filter></defs><g transform="translate(-152 -204)"><g transform="matrix(1, 0, 0, 1, 152, 204)" filter="url(#a)"><rect width="109" height="109" rx="8" transform="translate(9 7)" fill="#f8f8ff"/></g><g transform="translate(169 264)"><path d="M216.25,530.878a2.585,2.585,0,0,0,3.043-.7c1.066-1.172,1.4-3.1,1.672-4.889l.8-5.287-1.684,1.518a14.094,14.094,0,0,0-3.287,3.8,6.879,6.879,0,0,0-.531,5.453" transform="translate(-212.08 -507.585)" fill="#e6e6e6"/><path d="M217.71,552.348a34.624,34.624,0,0,1-.281-6.115,11.584,11.584,0,0,1,1.416-5.042,7.428,7.428,0,0,1,1.643-1.95c.164-.136.315.205.152.34a7.861,7.861,0,0,0-2.408,3.806,16.507,16.507,0,0,0-.518,5.506c.055,1.122.171,2.237.287,3.35a.218.218,0,0,1-.105.243c-.08.028-.163-.033-.185-.138Z" transform="translate(-213.28 -522.285)" fill="#f2f2f2"/><path d="M227.734,570.632A2.22,2.22,0,0,0,229.755,572c1.023-.064,1.876-1,2.644-1.887l2.271-2.627-1.5-.094a6.965,6.965,0,0,0-3.219.306,3.7,3.7,0,0,0-2.167,2.883" transform="translate(-221.779 -543.815)" fill="#e6e6e6"/><path d="M215.789,580.239c1.02-2.365,2.2-4.993,4.318-5.833a3.744,3.744,0,0,1,1.816-.246c.193.022.145.411-.048.39a3.716,3.716,0,0,0-2.9,1,9.357,9.357,0,0,0-1.992,2.816c-.33.658-.625,1.344-.921,2.029C215.97,580.618,215.694,580.46,215.789,580.239Z" transform="translate(-211.958 -549.014)" fill="#f2f2f2"/><ellipse cx="7.717" cy="10.11" rx="7.717" ry="10.11" transform="translate(20.52 6.911)" fill="#2f2e41"/><rect width="2.345" height="5.503" transform="translate(24.721 24.955)" fill="#2f2e41"/><rect width="2.345" height="5.503" transform="translate(29.41 24.955)" fill="#2f2e41"/><ellipse cx="1.954" cy="0.96" rx="1.954" ry="0.96" transform="translate(24.721 29.562)" fill="#2f2e41"/><ellipse cx="1.954" cy="0.96" rx="1.954" ry="0.96" transform="translate(29.41 29.434)" fill="#2f2e41"/><path d="M5.334.6c2.731-.366,4.852.031,4.737.889S7.649,3.336,4.917,3.7.065,3.671.18,2.813,2.6.964,5.334.6Z" transform="translate(30.459 13.464) rotate(-45.022)" fill="#2f2e41"/><path d="M2.813.18C3.671.065,4.068,2.186,3.7,4.917S2.343,9.956,1.486,10.071.231,8.065.6,5.334,1.956.3,2.813.18Z" transform="translate(13.847 9.957) rotate(-44.978)" fill="#2f2e41"/><ellipse cx="2.638" cy="3.455" rx="2.638" ry="3.455" transform="translate(25.275 12.133)" fill="#fff"/><ellipse cx="0.879" cy="1.152" rx="0.879" ry="1.152" transform="translate(27.033 14.437)" fill="#3f3d56"/><path d="M346.376,556.923a2.278,2.278,0,0,1-1.38,2.613c-.932.222-1.825-.587-1.995-1.808h0v0c-.169-1.221.552-1.653,1.484-1.875S346.208,555.7,346.376,556.923Z" transform="translate(-316.37 -534.944)" fill="#fff"/><path d="M391.309,584.823a.779.779,0,0,0-.655.858v1.793a.778.778,0,0,0,.655.858h10.542a.778.778,0,0,0,.655-.858v-1.793a.779.779,0,0,0-.655-.858Z" transform="translate(-355.504 -557.192)" fill="#e5e5e5"/><path d="M420.348,579.173a.252.252,0,0,0-.388.136l-.392.889-.384-.994a.257.257,0,0,0-.382-.164.433.433,0,0,0-.125.5l.3.774h-.109v3.616h1.461v-3.616h-.154l.279-.632A.441.441,0,0,0,420.348,579.173Z" transform="translate(-378.481 -552.736)" fill="#6c63ff"/><path d="M331.011,491.574a10.707,10.707,0,0,1-4.044-.809.6.6,0,0,1-.314-.563v-4.115a.532.532,0,0,1,.448-.587h7.885a.532.532,0,0,1,.448.587V490.2a.592.592,0,0,1-.319.563A11.129,11.129,0,0,1,331.011,491.574Z" transform="translate(-302.972 -481.184)" fill="#6c63ff"/><path d="M335.755,486.469v.688l-4.267,1.96a.282.282,0,0,1-.246,0l-4.089-2.012v-.631a.426.426,0,0,1,.358-.47H335.4A.426.426,0,0,1,335.755,486.469Z" transform="translate(-303.383 -481.566)" opacity="0.2"/><path d="M320.635,473.868a.357.357,0,0,1-.158-.037l-6.111-3.006a.606.606,0,0,1-.291-.558.6.6,0,0,1,.3-.547l5.75-2.576a.352.352,0,0,1,.287,0l6.417,2.8a.66.66,0,0,1,.007,1.111l-6.056,2.78A.356.356,0,0,1,320.635,473.868Z" transform="translate(-292.649 -467.112)" fill="#6c63ff"/><path d="M124.333,185.9h-.179v-3.4h5.465v.235h-5.286Z" transform="translate(-101.906 -179.357)" fill="#3f3d56"/><ellipse cx="0.358" cy="0.469" rx="0.358" ry="0.469" transform="translate(21.979 6.312)" fill="#3f3d56"/><ellipse cx="7.717" cy="10.11" rx="7.717" ry="10.11" transform="translate(65.14 6.911)" fill="#2f2e41"/><rect width="2.345" height="5.503" transform="translate(69.34 24.955)" fill="#2f2e41"/><rect width="2.345" height="5.503" transform="translate(74.029 24.955)" fill="#2f2e41"/><ellipse cx="1.954" cy="0.96" rx="1.954" ry="0.96" transform="translate(69.34 29.562)" fill="#2f2e41"/><ellipse cx="1.954" cy="0.96" rx="1.954" ry="0.96" transform="translate(74.029 29.434)" fill="#2f2e41"/><path d="M5.334.6c2.731-.366,4.852.031,4.737.889S7.649,3.336,4.917,3.7.065,3.671.18,2.813,2.6.964,5.334.6Z" transform="translate(75.078 13.464) rotate(-45.022)" fill="#2f2e41"/><path d="M5.529.584c2.859-.343,5.089.041,4.982.858S8,3.2,5.139,3.544.049,3.5.157,2.686,2.67.928,5.529.584Z" transform="translate(60.127 24.187) rotate(-55.225)" fill="#2f2e41"/><ellipse cx="2.638" cy="3.455" rx="2.638" ry="3.455" transform="translate(69.895 12.133)" fill="#fff"/><ellipse cx="0.879" cy="1.152" rx="0.879" ry="1.152" transform="translate(72.549 13.263)" fill="#3f3d56"/><path d="M593.162,556.923a2.3,2.3,0,0,1-2.105,2.613,2.615,2.615,0,0,1-3.042-1.808h0v0c-.257-1.221.842-1.653,2.264-1.875S592.9,555.7,593.162,556.923Z" transform="translate(-517.467 -534.944)" fill="#fff"/><path d="M560.187,489.434a11.037,11.037,0,0,1-3.982,1.225.461.461,0,0,1-.451-.369l-1.172-3.818a.66.66,0,0,1,.248-.763l7.315-3.853c.23-.12.49.025.583.326L563.9,486a.711.711,0,0,1-.135.678A13.972,13.972,0,0,1,560.187,489.434Z" transform="translate(-490.03 -478.363)" fill="#6c63ff"/><path d="M563.055,482.608l.2.638-3.4,3.9a.317.317,0,0,1-.229.115l-4.367.132-.18-.586a.53.53,0,0,1,.2-.611l7.315-3.853C562.773,482.252,562.981,482.368,563.055,482.608Z" transform="translate(-490.44 -478.746)" opacity="0.2"/><path d="M547.254,478.274a.361.361,0,0,1-.157.042l-6.526.2a.466.466,0,0,1-.428-.376.713.713,0,0,1,.125-.655l4.6-5.2a.4.4,0,0,1,.266-.142l6.752-.536a.457.457,0,0,1,.442.363.717.717,0,0,1-.119.664l-4.826,5.539A.451.451,0,0,1,547.254,478.274Z" transform="translate(-478.181 -470.549)" fill="#6c63ff"/><path d="M351.144,194.049l-.166.088-.969-3.158,5.071-2.671.067.218-4.9,2.584Z" transform="translate(-287.289 -183.802)" fill="#3f3d56"/><ellipse cx="0.358" cy="0.469" rx="0.358" ry="0.469" transform="translate(63.481 10.039)" fill="#3f3d56"/><path d="M287.979,600.469H194.615c-.064,0-.115-.105-.115-.235s.052-.235.115-.235h93.364c.064,0,.115.1.115.235S288.043,600.469,287.979,600.469Z" transform="translate(-194.5 -568.806)" fill="#cbcbcb"/></g></g></svg>