<svg xmlns="http://www.w3.org/2000/svg" xmlns:xlink="http://www.w3.org/1999/xlink" width="1601.187" height="768.506" viewBox="0 0 1601.187 768.506"><defs><linearGradient id="a" x1="0.411" y1="0.177" x2="0.546" y2="0.91" gradientUnits="objectBoundingBox"><stop offset="0" stop-color="#6c63ff"/><stop offset="1" stop-color="#837bff"/></linearGradient></defs><path d="M2124,729V541.583l.759-238.478L2391.582,231.3l198.795-52.911S3294.738-12.5,3350.407-25.7s54.743-11.616,87.3-12.472c7.567-.2,8.011-.422,14.4-.316s5.453-.021,10.473.316c14.024.942,12.407,1.781,31.229,3.767,29.5,3.113,32.653,4.873,66.06,16.686s64.2,29.812,67.434,32c1.585,1.073,29.588,17.718,52.639,39.91s44.245,47.855,44.245,47.855l-.378,626.619Z" transform="translate(-2123.5 39.006)" stroke="#707070" stroke-width="1" fill="url(#a)"/></svg>