<svg xmlns="http://www.w3.org/2000/svg" xmlns:xlink="http://www.w3.org/1999/xlink" width="515.883" height="563.311" viewBox="0 0 515.883 563.311"><defs><linearGradient id="a" x1="0.5" x2="0.5" y2="1" gradientUnits="objectBoundingBox"><stop offset="0" stop-color="#6c63ff"/><stop offset="1" stop-color="#363280"/></linearGradient><filter id="c" x="202.841" y="488.235" width="165.082" height="75.076" filterUnits="userSpaceOnUse"><feOffset dy="3" input="SourceAlpha"/><feGaussianBlur stdDeviation="3" result="d"/><feFlood flood-color="#ae5858"/><feComposite operator="in" in2="d"/><feComposite in="SourceGraphic"/></filter><filter id="e" x="46.196" y="0" width="423.116" height="563.117" filterUnits="userSpaceOnUse"><feOffset dy="4" input="SourceAlpha"/><feGaussianBlur stdDeviation="6" result="f"/><feFlood flood-color="#989898" flood-opacity="0.612"/><feComposite operator="in" in2="f"/><feComposite in="SourceGraphic"/></filter><filter id="g" x="46.196" y="0" width="423.116" height="563.117" filterUnits="userSpaceOnUse"><feOffset dy="4" input="SourceAlpha"/><feGaussianBlur stdDeviation="5" result="h"/><feFlood flood-opacity="0.18" result="i"/><feComposite operator="out" in="SourceGraphic" in2="h"/><feComposite operator="in" in="i"/><feComposite operator="in" in2="SourceGraphic"/></filter></defs><g transform="translate(-3575 -1467.7)"><ellipse cx="257.942" cy="252.453" rx="257.942" ry="252.453" transform="translate(3575 1523.983)" fill="url(#a)"/><g transform="matrix(1, 0, 0, 1, 3575, 1467.7)" filter="url(#c)"><ellipse cx="73.541" cy="28.538" rx="73.541" ry="28.538" transform="translate(211.84 494.23)" fill="url(#a)"/></g><g transform="translate(3621.196 1467.7)"><g data-type="innerShadowGroup"><g transform="matrix(1, 0, 0, 1, -46.2, 0)" filter="url(#e)"><path d="M38.714,75.939l166.7-56.263a16.694,16.694,0,0,1,7.248-.733,20.327,20.327,0,0,1,7.134,2.241,23.642,23.642,0,0,1,6.229,4.767,24.651,24.651,0,0,1,4.547,6.868l166.77,376.4a23.214,23.214,0,0,1,1.9,7.57,23.989,23.989,0,0,1-.609,7.588,21.645,21.645,0,0,1-2.919,6.767,17.67,17.67,0,0,1-5.042,5.087L248.011,529.564a19.179,19.179,0,0,1-7.528,2.954,17.28,17.28,0,0,1-7.539-.472,17.572,17.572,0,0,1-6.673-3.683,19.937,19.937,0,0,1-4.912-6.655L27.722,103.907a22.763,22.763,0,0,1-2.142-8.721A20.168,20.168,0,0,1,26.953,87a18.841,18.841,0,0,1,4.511-6.717A19.43,19.43,0,0,1,38.714,75.939Z" transform="translate(46.2 0)" fill="#fff"/></g><g transform="matrix(1, 0, 0, 1, -46.2, 0)" filter="url(#g)"><path d="M38.714,75.939l166.7-56.263a16.694,16.694,0,0,1,7.248-.733,20.327,20.327,0,0,1,7.134,2.241,23.642,23.642,0,0,1,6.229,4.767,24.651,24.651,0,0,1,4.547,6.868l166.77,376.4a23.214,23.214,0,0,1,1.9,7.57,23.989,23.989,0,0,1-.609,7.588,21.645,21.645,0,0,1-2.919,6.767,17.67,17.67,0,0,1-5.042,5.087L248.011,529.564a19.179,19.179,0,0,1-7.528,2.954,17.28,17.28,0,0,1-7.539-.472,17.572,17.572,0,0,1-6.673-3.683,19.937,19.937,0,0,1-4.912-6.655L27.722,103.907a22.763,22.763,0,0,1-2.142-8.721A20.168,20.168,0,0,1,26.953,87a18.841,18.841,0,0,1,4.511-6.717A19.43,19.43,0,0,1,38.714,75.939Z" transform="translate(46.2 0)" fill="#fff"/></g></g><path d="M20.463,57.235,170.123,5.816a16.844,16.844,0,0,1,7.295-.784A20.345,20.345,0,0,1,184.6,7.242,23.554,23.554,0,0,1,190.86,12a24.559,24.559,0,0,1,4.571,6.879L355.344,379.142a23.21,23.21,0,0,1,1.91,7.61,23.941,23.941,0,0,1-.63,7.623,21.657,21.657,0,0,1-2.965,6.792,17.8,17.8,0,0,1-5.11,5.1L219.61,489.642a18.951,18.951,0,0,1-7.491,2.883,17.237,17.237,0,0,1-7.5-.524,17.661,17.661,0,0,1-6.642-3.711,20.044,20.044,0,0,1-4.891-6.654L9.647,85.116a22.773,22.773,0,0,1-2.133-8.676,20.226,20.226,0,0,1,1.343-8.154,18.808,18.808,0,0,1,4.447-6.7A19.221,19.221,0,0,1,20.463,57.235Z" transform="translate(31.015 25.594)" fill="#0f00f9" opacity="0.06"/><g transform="translate(85.309 40.706)"><path d="M0,30.5,88.773,0a20.571,20.571,0,0,1,1.806,7.262,17.526,17.526,0,0,1-.924,6.775A15.17,15.17,0,0,1,86.249,19.6a14.645,14.645,0,0,1-5.654,3.612L25.781,42.69a17.968,17.968,0,0,1-7.381.957,20.943,20.943,0,0,1-7.324-1.961A23,23,0,0,1,0,30.5Z" fill="#fff"/><g transform="translate(22.472 12.931)"><g transform="translate(0 2.626)" fill="#fff"><path d="M1.988,14.626,42.111.66a1.929,1.929,0,0,1,.811-.1,2.282,2.282,0,0,1,.8.23,2.563,2.563,0,0,1,.7.51,2.6,2.6,0,0,1,.508.746,2.375,2.375,0,0,1,.211.85,2.037,2.037,0,0,1-.112.793,1.778,1.778,0,0,1-.4.65,1.725,1.725,0,0,1-.665.42L3.9,18.817a2.057,2.057,0,0,1-.847.106,2.391,2.391,0,0,1-.836-.228A2.632,2.632,0,0,1,.955,17.416a2.376,2.376,0,0,1-.215-.871,2.064,2.064,0,0,1,.123-.816,1.824,1.824,0,0,1,1.126-1.1Z" stroke="none"/><path d="M 43.96107482910156 4.76287317276001 L 3.895374059677124 18.81730651855469 C 3.621534585952759 18.91336631774902 3.333893537521362 18.94626235961914 3.048202514648438 18.9234733581543 C 2.762431144714355 18.90068054199219 2.478620290756226 18.82217216491699 2.212548017501831 18.6954345703125 C 1.946413636207581 18.56866836547852 1.698042988777161 18.39366722106934 1.483230710029602 18.17793273925781 C 1.26838493347168 17.96216583251953 1.087127923965454 17.7056770324707 0.9552615284919739 17.41599655151367 C 0.8233885765075684 17.12630653381348 0.7534123063087463 16.83088493347168 0.7397947907447815 16.54473114013672 C 0.7261781692504883 16.25860023498535 0.7689141035079956 15.98176574707031 0.8624469637870789 15.72921943664551 C 0.9559639096260071 15.47671031951904 1.100252389907837 15.24850177764893 1.289748787879944 15.05955410003662 C 1.479198217391968 14.87065505981445 1.713819980621338 14.72100830078125 1.988050580024719 14.62555503845215 L 42.11067962646484 0.6599010825157166 C 42.37269592285156 0.5687003135681152 42.64812469482422 0.539247989654541 42.92183685302734 0.5640634894371033 C 43.19547653198242 0.5888710618019104 43.46739959716797 0.6679182052612305 43.72251129150391 0.7937259674072266 C 43.97756958007812 0.9195060729980469 44.2158317565918 1.092036366462708 44.42221069335938 1.303863763809204 C 44.62857055664062 1.515659213066101 44.80306625366211 1.76675546169281 44.93063354492188 2.049725294113159 C 45.05818557739258 2.332680463790894 45.12674713134766 2.620750904083252 45.14151382446289 2.899422883987427 C 45.15628814697266 3.17811393737793 45.11725616455078 3.447437286376953 45.02960586547852 3.692867517471313 C 44.94194412231445 3.938339233398438 44.80563735961914 4.159928798675537 44.6258544921875 4.343096256256104 C 44.44604110717773 4.526308059692383 44.22272109985352 4.671091556549072 43.96107482910156 4.76287317276001 Z" stroke="none" fill="rgba(197,197,197,0.4)"/></g><g transform="translate(47.786)" fill="#fff"><path d="M1.884.654a1.905,1.905,0,0,1,.8-.094,2.262,2.262,0,0,1,.794.23,2.552,2.552,0,0,1,.695.509,2.6,2.6,0,0,1,.505.743,2.375,2.375,0,0,1,.21.846,2.032,2.032,0,0,1-.11.79,1.765,1.765,0,0,1-.4.647,1.7,1.7,0,0,1-.659.417,1.9,1.9,0,0,1-.8.1,2.26,2.26,0,0,1-.8-.228,2.551,2.551,0,0,1-.7-.509,2.6,2.6,0,0,1-.507-.744,2.374,2.374,0,0,1-.21-.848,2.031,2.031,0,0,1,.111-.791,1.764,1.764,0,0,1,.4-.647A1.7,1.7,0,0,1,1.884.654Z" stroke="none"/><path d="M 3.723425626754761 4.740549087524414 C 3.463950634002686 4.831569194793701 3.190945625305176 4.861139297485352 2.91942286491394 4.836652278900146 C 2.647824764251709 4.812158107757568 2.37772011756897 4.733577251434326 2.124142646789551 4.608314037322998 C 1.870508193969727 4.483022212982178 1.633424758911133 4.31103515625 1.427945256233215 4.099775314331055 C 1.222434401512146 3.88848352432251 1.048555374145508 3.637926340103149 0.9213670492172241 3.355549097061157 C 0.7941726446151733 3.073158502578735 0.7257307171821594 2.78571343421936 0.710881233215332 2.50773286819458 C 0.6960330009460449 2.22977089881897 0.7347715497016907 1.961301565170288 0.821921169757843 1.716829776763916 C 0.9090563058853149 1.472397565841675 1.044578909873962 1.251976251602173 1.223304986953735 1.07004988193512 C 1.401988387107849 0.8881673812866211 1.623842239379883 0.7447735667228699 1.883683085441589 0.6543296575546265 C 2.143446683883667 0.5639126896858215 2.41658091545105 0.5349754095077515 2.688071489334106 0.5600466728210449 C 2.959486722946167 0.5851112008094788 3.229269027709961 0.6641553640365601 3.482426404953003 0.7897207140922546 C 3.73552680015564 0.9152578711509705 3.972025632858276 1.087302803993225 4.176949024200439 1.298416495323181 C 4.381840705871582 1.509497880935669 4.555185794830322 1.759654879570007 4.682014942169189 2.041470050811768 C 4.808837413787842 2.323271036148071 4.877156734466553 2.610082149505615 4.892113208770752 2.887466907501221 C 4.907070636749268 3.164870262145996 4.868658065795898 3.432875633239746 4.781999588012695 3.677033662796021 C 4.695326805114746 3.921231746673584 4.560385704040527 4.14159631729126 4.382288455963135 4.323657035827637 C 4.204150199890137 4.50576114654541 3.982823610305786 4.649556636810303 3.723425626754761 4.740549087524414 Z" stroke="none" fill="rgba(197,197,197,0.4)"/></g></g></g><g transform="translate(183.832 35.64)"><path d="M10.334,1.873,10.9,3.151l.57-.2.569,1.277-.57.2.569,1.277-8.6,3.016L1.728,4.87l8.607-3M10.051.5.866,3.686a.77.77,0,0,0-.3.193.816.816,0,0,0-.183.3.965.965,0,0,0-.049.371,1.143,1.143,0,0,0,.1.4l2.007,4.5a1.243,1.243,0,0,0,.235.351,1.2,1.2,0,0,0,.322.241,1.036,1.036,0,0,0,.367.11.857.857,0,0,0,.37-.043l9.164-3.224a.759.759,0,0,0,.3-.192.811.811,0,0,0,.18-.3.965.965,0,0,0,.048-.369,1.144,1.144,0,0,0-.1-.4l-.142-.319.142-.05a.379.379,0,0,0,.149-.1.405.405,0,0,0,.09-.15.482.482,0,0,0,.024-.184.572.572,0,0,0-.049-.2L12.259,1.756a.622.622,0,0,0-.117-.175.6.6,0,0,0-.159-.12.514.514,0,0,0-.182-.055.422.422,0,0,0-.183.02l-.143.05-.142-.319A1.244,1.244,0,0,0,11.1.807a1.2,1.2,0,0,0-.319-.241,1.029,1.029,0,0,0-.363-.111A.846.846,0,0,0,10.051.5ZM4.892,4.509l-2.3.8L3.736,7.878l2.3-.806Z" transform="translate(12.5)" fill="#6c63ff" opacity="0.42"/><g transform="translate(0 4.773)" opacity="0.4"><path d="M4.35,1.5a5.441,5.441,0,0,0-1.119.54,5.722,5.722,0,0,0-.969.771,5.942,5.942,0,0,0-.788.963A6,6,0,0,0,.9,4.893a.164.164,0,0,0-.012.068A.2.2,0,0,0,.9,5.031a.225.225,0,0,0,.1.11l.787.418a.189.189,0,0,0,.07.022.16.16,0,0,0,.066-.006.145.145,0,0,0,.055-.032.15.15,0,0,0,.037-.056q.092-.233.2-.452t.243-.424a4.727,4.727,0,0,1,.282-.393,4.647,4.647,0,0,1,.321-.362,4.586,4.586,0,0,1,.839-.677,4.705,4.705,0,0,1,.475-.261,4.949,4.949,0,0,1,.509-.209,5.041,5.041,0,0,1,.534-.153,5.115,5.115,0,0,1,.548-.094,5.3,5.3,0,0,1,.561-.035,5.589,5.589,0,0,1,.572.024q.257.025.512.072t.508.117q.253.07.5.162t.5.207a.188.188,0,0,0,.07.018.157.157,0,0,0,.065-.01.141.141,0,0,0,.053-.035.147.147,0,0,0,.033-.058l.248-.776A.173.173,0,0,0,9.6,2.078a.2.2,0,0,0-.019-.069.221.221,0,0,0-.042-.06.214.214,0,0,0-.061-.044A7.727,7.727,0,0,0,8.2,1.438a7.406,7.406,0,0,0-1.315-.23,6.673,6.673,0,0,0-1.3.018A5.758,5.758,0,0,0,4.35,1.5Z" fill="#6c63ff"/><path d="M.683,3.365l.826.413a.2.2,0,0,0,.067.019.163.163,0,0,0,.063-.006.14.14,0,0,0,.089-.082A2.858,2.858,0,0,1,2.008,3.2a2.7,2.7,0,0,1,.369-.431,2.666,2.666,0,0,1,.45-.343,2.764,2.764,0,0,1,.522-.246,2.92,2.92,0,0,1,.571-.137,3.069,3.069,0,0,1,.592-.022,3.309,3.309,0,0,1,.6.092,3.62,3.62,0,0,1,.6.2.179.179,0,0,0,.067.016.153.153,0,0,0,.062-.01.144.144,0,0,0,.051-.034.153.153,0,0,0,.034-.054l.281-.8a.177.177,0,0,0,.009-.072.205.205,0,0,0-.019-.071.219.219,0,0,0-.043-.062.211.211,0,0,0-.064-.044A5,5,0,0,0,5.282.9,4.608,4.608,0,0,0,4.454.766a4.237,4.237,0,0,0-.831.022,3.982,3.982,0,0,0-.813.19,3.778,3.778,0,0,0-.741.352,3.658,3.658,0,0,0-.625.486,3.723,3.723,0,0,0-.5.6,3.911,3.911,0,0,0-.37.7.169.169,0,0,0-.011.07.206.206,0,0,0,.017.071.227.227,0,0,0,.041.063A.221.221,0,0,0,.683,3.365Z" transform="translate(2.639 2.996)" fill="#6c63ff"/><path d="M1.192.417A1.447,1.447,0,0,0,.878.571,1.408,1.408,0,0,0,.621.787a1.449,1.449,0,0,0-.2.269,1.539,1.539,0,0,0-.135.31.177.177,0,0,0-.007.068A.2.2,0,0,0,.3,1.5a.221.221,0,0,0,.04.059A.218.218,0,0,0,.4,1.6l1.537.766a.188.188,0,0,0,.07.02.158.158,0,0,0,.065-.008.143.143,0,0,0,.054-.034.149.149,0,0,0,.035-.057L2.686.8A.175.175,0,0,0,2.7.734.2.2,0,0,0,2.679.666a.219.219,0,0,0-.038-.06A.217.217,0,0,0,2.583.561,1.991,1.991,0,0,0,2.246.417,1.831,1.831,0,0,0,1.894.342a1.656,1.656,0,0,0-.355,0A1.524,1.524,0,0,0,1.192.417Z" transform="translate(5.344 5.976)" fill="#6c63ff"/></g></g><g transform="translate(136.805 184.497)"><path d="M14.071,5.2a8.615,8.615,0,0,0-3.526-1.777,9.487,9.487,0,0,0-3.614-.1,16.808,16.808,0,0,0-3.557,1c-1.161.454-2.285.993-3.349,1.519l1.894,4.17C2.875,9.605,3.906,9.1,4.957,8.66a11.884,11.884,0,0,1,3.154-.908,4.593,4.593,0,0,1,2.943.56,6.351,6.351,0,0,1,2.414,3.043,64.236,64.236,0,0,1,2.716,6.057,7.369,7.369,0,0,1,.562,3.9,4.571,4.571,0,0,1-2.041,2.76,27.615,27.615,0,0,1-5.123,2.634l1.789,3.913c.664-.286,1.415-.589,2.192-.922s1.576-.7,2.34-1.108A13.009,13.009,0,0,0,18.021,27.2a6.4,6.4,0,0,0,1.53-1.757,8.936,8.936,0,0,0,1.121-2.315,9.667,9.667,0,0,0,.44-2.56,11.007,11.007,0,0,0-.237-2.695,12.71,12.71,0,0,0-.914-2.722c-.364-.738-.746-1.615-1.157-2.545s-.85-1.911-1.327-2.857A20.239,20.239,0,0,0,15.92,7.108,7.643,7.643,0,0,0,14.071,5.2Z" transform="translate(46.953 23.325)" fill="#6c63ff"/><path d="M14.885,29.355q-.293.137-.587.268t-.587.257q-.292.126-.58.246l-.567.237-.272.113-.266.111-.259.109-.252.108-.067.032L9.588,26.763l.071-.033c1.046-.445,1.977-.864,2.794-1.272a17.713,17.713,0,0,0,2.108-1.21A6.933,6.933,0,0,0,15.986,23a3.675,3.675,0,0,0,.746-1.4,4.527,4.527,0,0,0,.077-1.8,11.348,11.348,0,0,0-.577-2.23c-.29-.824-.673-1.734-1.132-2.742s-.994-2.114-1.589-3.332a9.8,9.8,0,0,0-.564-1.1,6.771,6.771,0,0,0-.634-.891,5.043,5.043,0,0,0-.708-.691,4.133,4.133,0,0,0-2.563-.911,7.02,7.02,0,0,0-1.892.239A14.684,14.684,0,0,0,5.219,8.8c-.642.262-1.278.555-1.894.838L3,9.784l-.317.145-.313.14q-.156.069-.312.134l-.07.031L.024,5.907l.068-.03c1.184-.585,2.381-1.146,3.582-1.6a16.4,16.4,0,0,1,3.592-.963,9.251,9.251,0,0,1,3.536.16A8.756,8.756,0,0,1,14.22,5.238a6.974,6.974,0,0,1,1.485,1.424A15.048,15.048,0,0,1,17,8.605c.4.706.779,1.455,1.132,2.2s.683,1.5.994,2.2l.262.594q.129.292.254.572t.247.543q.122.264.241.509a12.778,12.778,0,0,1,.922,2.751,11.143,11.143,0,0,1,.237,2.724,9.787,9.787,0,0,1-.445,2.583,8.963,8.963,0,0,1-1.127,2.327,5.683,5.683,0,0,1-.867,1.149,8.592,8.592,0,0,1-1.153.99,13.709,13.709,0,0,1-1.351.856C15.873,28.876,15.381,29.123,14.885,29.355Zm-3.372,1.251.98-.411c.65-.27,1.339-.557,2.026-.87a22.268,22.268,0,0,0,2.017-1.031,11.19,11.19,0,0,0,1.769-1.256,6.1,6.1,0,0,0,1.286-1.546A8.836,8.836,0,0,0,20.7,23.2a9.648,9.648,0,0,0,.44-2.539,10.976,10.976,0,0,0-.229-2.677,12.572,12.572,0,0,0-.9-2.7q-.12-.243-.242-.506t-.248-.543q-.125-.279-.254-.573t-.26-.6c-.308-.7-.635-1.444-.985-2.186S17.3,9.393,16.9,8.694a14.912,14.912,0,0,0-1.277-1.921,6.8,6.8,0,0,0-1.457-1.4h0a8.611,8.611,0,0,0-3.36-1.731,9.153,9.153,0,0,0-3.482-.159,16.262,16.262,0,0,0-3.542.942C2.6,4.87,1.415,5.42.246,5.994l1.819,4,.289-.129.294-.131.3-.134.307-.137c.622-.286,1.265-.582,1.915-.847A14.679,14.679,0,0,1,7.126,7.96,7.1,7.1,0,0,1,9.05,7.725a4.3,4.3,0,0,1,2.633.943,5.215,5.215,0,0,1,.732.714,7.053,7.053,0,0,1,.654.918,10.255,10.255,0,0,1,.584,1.127c.6,1.228,1.139,2.343,1.6,3.361s.847,1.937,1.138,2.771a11.45,11.45,0,0,1,.577,2.265,4.709,4.709,0,0,1-.083,1.841,3.858,3.858,0,0,1-.759,1.429A6.98,6.98,0,0,1,14.7,24.365a17.36,17.36,0,0,1-2.1,1.221c-.815.41-1.744.83-2.788,1.276Z" transform="translate(46.831 23.223)" fill="#6c63ff"/><path d="M22.441,38.611l-9.4-20.468A3.214,3.214,0,0,1,12.7,16.83a1.554,1.554,0,0,1,.236-.862,1.945,1.945,0,0,1,.527-.534c.192-.137.385-.239.53-.328L7.094.094A12.408,12.408,0,0,0,5.613.851a9.4,9.4,0,0,0-1.235.883,7.539,7.539,0,0,0-.988,1.008,6.63,6.63,0,0,0-.74,1.134,5.124,5.124,0,0,0-.45,1.24,5.284,5.284,0,0,0-.118,1.329,6.522,6.522,0,0,0,.213,1.416,9.053,9.053,0,0,0,.545,1.5L26.884,61.637a13.1,13.1,0,0,0,1.475-.848,9.87,9.87,0,0,0,1.216-.953,7.838,7.838,0,0,0,.96-1.059,6.8,6.8,0,0,0,.7-1.165,5.371,5.371,0,0,0,.416-1.256,5.531,5.531,0,0,0,.1-1.333,6.734,6.734,0,0,0-.222-1.409,9.179,9.179,0,0,0-.541-1.487L25.338,39.864c-.117.046-.285.147-.489.233a1.629,1.629,0,0,1-.706.148,1.342,1.342,0,0,1-.833-.356A3.66,3.66,0,0,1,22.441,38.611Z" transform="translate(32.979 14.078)" fill="#6c63ff"/><path d="M26.964,61.865l-.037-.082L2.879,9.507a9.286,9.286,0,0,1-.546-1.519,6.739,6.739,0,0,1-.217-1.439A5.4,5.4,0,0,1,2.232,5.2a5.1,5.1,0,0,1,.455-1.26,6.743,6.743,0,0,1,.751-1.146,7.652,7.652,0,0,1,1-1.018A9.51,9.51,0,0,1,5.681.882,12.488,12.488,0,0,1,7.167.121L7.239.09,14.2,15.254l-.062.027-.15.089a4.089,4.089,0,0,0-.5.33,1.662,1.662,0,0,0-.443.518,1.53,1.53,0,0,0-.166.8,3.252,3.252,0,0,0,.33,1.19l9.4,20.466a5.528,5.528,0,0,0,.275.532,3.53,3.53,0,0,0,.292.425,2.214,2.214,0,0,0,.309.315,1.447,1.447,0,0,0,.324.2,1.153,1.153,0,0,0,.4.1,1.3,1.3,0,0,0,.373-.033,1.962,1.962,0,0,0,.332-.112c.1-.044.2-.092.28-.135l.057-.027.053-.025.049-.023.044-.02.066-.031,5.687,12.341a9.139,9.139,0,0,1,.545,1.5,6.853,6.853,0,0,1,.222,1.433,5.679,5.679,0,0,1-.1,1.356,5.467,5.467,0,0,1-.422,1.276,6.864,6.864,0,0,1-.712,1.18,7.912,7.912,0,0,1-.969,1.07,9.917,9.917,0,0,1-1.225.96,13.059,13.059,0,0,1-1.48.849ZM7.174.32a12,12,0,0,0-1.443.747,9.3,9.3,0,0,0-1.207.871,7.52,7.52,0,0,0-.967.992,6.551,6.551,0,0,0-.724,1.108,4.962,4.962,0,0,0-.439,1.215,5.25,5.25,0,0,0-.115,1.311,6.489,6.489,0,0,0,.21,1.4,8.83,8.83,0,0,0,.536,1.479l24,52.186a12.8,12.8,0,0,0,1.434-.834,9.79,9.79,0,0,0,1.188-.939,7.8,7.8,0,0,0,.94-1.042,6.679,6.679,0,0,0,.689-1.141,5.23,5.23,0,0,0,.406-1.233,5.5,5.5,0,0,0,.094-1.315,6.69,6.69,0,0,0-.219-1.391,8.943,8.943,0,0,0-.531-1.462L25.415,40.089l-.126.059c-.083.042-.181.092-.29.139a2.094,2.094,0,0,1-.359.119,1.445,1.445,0,0,1-.412.035,1.3,1.3,0,0,1-.45-.113,1.673,1.673,0,0,1-.353-.225,2.4,2.4,0,0,1-.332-.337,3.7,3.7,0,0,1-.312-.45,5.752,5.752,0,0,1-.292-.564l-9.405-20.47A3.434,3.434,0,0,1,12.734,17a1.691,1.691,0,0,1,.186-.875,1.841,1.841,0,0,1,.476-.562,4.206,4.206,0,0,1,.52-.348L14,15.162Z" transform="translate(32.867 13.966)" fill="#6c63ff"/><path d="M24.164,21.012a2.11,2.11,0,0,0-.515-.254,1.948,1.948,0,0,0-.551-.1,2.281,2.281,0,0,0-.587.061,3.186,3.186,0,0,0-.623.219L12.925,25.1l-2.783-6.182L15.3,16.56a3.34,3.34,0,0,0,.585-.338,2.41,2.41,0,0,0,.442-.414,2.054,2.054,0,0,0,.3-.489,2.193,2.193,0,0,0,.157-.565A3.063,3.063,0,0,0,16.8,14.1a4.927,4.927,0,0,0-.12-.758,7.925,7.925,0,0,0-.257-.861q-.163-.457-.394-.965L8.372,14.984,5.693,9.03l5.246-2.383c.007,0,.055-.3.124-.766s.157-1.078.244-1.695.172-1.233.233-1.7.1-.772.093-.775-.008,0-.008,0l.008,0,.008,0s0,0-.008-.006L1.963,5.957a1.81,1.81,0,0,0-.364.2,1.884,1.884,0,0,0-.312.277,2.044,2.044,0,0,0-.252.347,2.273,2.273,0,0,0-.184.409,1.959,1.959,0,0,0-.1.411,2.212,2.212,0,0,0-.019.437,2.423,2.423,0,0,0,.067.446,2.545,2.545,0,0,0,.151.438L9.877,28.749a2.509,2.509,0,0,0,.226.408,2.381,2.381,0,0,0,.289.348,2.166,2.166,0,0,0,.341.276,1.911,1.911,0,0,0,.38.192,2.264,2.264,0,0,0,.425.122,2.049,2.049,0,0,0,.423.033,1.9,1.9,0,0,0,.41-.056,1.842,1.842,0,0,0,.386-.144L26.067,23.7q-.228-.507-.46-.928a8.036,8.036,0,0,0-.47-.758,4.947,4.947,0,0,0-.481-.587A3.025,3.025,0,0,0,24.164,21.012Z" transform="translate(82.283 6.854)" fill="#6c63ff"/><path d="M26.29,23.884l-13.374,6.26a1.91,1.91,0,0,1-.4.149,1.975,1.975,0,0,1-.424.057,2.125,2.125,0,0,1-.438-.034,2.349,2.349,0,0,1-.44-.126,2,2,0,0,1-.4-.2,2.263,2.263,0,0,1-.356-.289,2.488,2.488,0,0,1-.3-.365,2.621,2.621,0,0,1-.236-.427L.989,9.08a2.667,2.667,0,0,1-.158-.458,2.539,2.539,0,0,1-.07-.466A2.32,2.32,0,0,1,.781,7.7,2.055,2.055,0,0,1,.89,7.27a2.364,2.364,0,0,1,.192-.423,2.127,2.127,0,0,1,.261-.36A1.962,1.962,0,0,1,1.666,6.2a1.884,1.884,0,0,1,.377-.207l9.628-4.226.01-.048.066.014.028.02.007,0,.007,0,.006.005.006.006.053.037-.034.127c0,.067-.012.16-.026.29s-.036.3-.065.511-.065.477-.109.8-.1.7-.161,1.153-.112.79-.153,1.071-.073.493-.1.652-.046.264-.063.334a.264.264,0,0,1-.047.117l-.019.009L5.924,9.213l2.6,5.776,7.662-3.469.04.088q.231.515.395.98a8.216,8.216,0,0,1,.258.879,5.16,5.16,0,0,1,.122.774,3.188,3.188,0,0,1-.016.668,2.222,2.222,0,0,1-.16.579,2.14,2.14,0,0,1-.309.507,2.5,2.5,0,0,1-.456.43,3.366,3.366,0,0,1-.6.35L10.367,19.1l2.7,6,8.889-4.121a3.21,3.21,0,0,1,.636-.221,2.374,2.374,0,0,1,.6-.061,2.058,2.058,0,0,1,.571.1,2.2,2.2,0,0,1,.534.259h0a3.126,3.126,0,0,1,.5.426,5.084,5.084,0,0,1,.494.6,8.13,8.13,0,0,1,.481.77q.237.428.467.939ZM2.122,6.173a1.755,1.755,0,0,0-.351.192,1.827,1.827,0,0,0-.3.267,1.98,1.98,0,0,0-.243.334,2.2,2.2,0,0,0-.178.394,1.876,1.876,0,0,0-.1.393,2.118,2.118,0,0,0-.018.417A2.318,2.318,0,0,0,.994,8.6a2.435,2.435,0,0,0,.144.418l8.931,19.824a2.4,2.4,0,0,0,.216.39,2.277,2.277,0,0,0,.277.332,2.073,2.073,0,0,0,.325.264,1.829,1.829,0,0,0,.363.184,2.184,2.184,0,0,0,.41.118,1.975,1.975,0,0,0,.408.032,1.835,1.835,0,0,0,.4-.054,1.775,1.775,0,0,0,.373-.139l13.231-6.19q-.219-.479-.443-.878a7.753,7.753,0,0,0-.453-.72,4.811,4.811,0,0,0-.462-.559,2.92,2.92,0,0,0-.469-.4h0a2.022,2.022,0,0,0-.5-.241,1.91,1.91,0,0,0-.534-.09,2.246,2.246,0,0,0-.569.06,3.1,3.1,0,0,0-.6.211L13,25.353l-2.865-6.365,5.231-2.39a3.278,3.278,0,0,0,.57-.329,2.363,2.363,0,0,0,.431-.4,1.981,1.981,0,0,0,.292-.472,2.058,2.058,0,0,0,.151-.542,2.979,2.979,0,0,0,.016-.625,4.827,4.827,0,0,0-.112-.723,7.8,7.8,0,0,0-.239-.821q-.151-.435-.365-.92l-7.66,3.47L5.69,9.1,10.98,6.7c.019-.095.063-.386.122-.783s.13-.9.2-1.412.146-1.042.207-1.491.11-.82.135-1.022Z" transform="translate(82.172 6.726)" fill="#6c63ff"/><path d="M26.473,22.127a2.273,2.273,0,0,0-.565-.258,2.192,2.192,0,0,0-.607-.089,2.647,2.647,0,0,0-.649.079,3.738,3.738,0,0,0-.692.247l-9.975,4.626-2.972-6.508L16.757,17.6a3.909,3.909,0,0,0,.653-.373,2.768,2.768,0,0,0,.5-.45,2.275,2.275,0,0,0,.339-.527,2.324,2.324,0,0,0,.183-.6,3.15,3.15,0,0,0,.03-.7,4.982,4.982,0,0,0-.12-.8,7.961,7.961,0,0,0-.269-.91q-.172-.482-.419-1.017L9.122,16.083,6.259,9.815,12.1,7.163c.007,0,.066-.325.15-.817s.192-1.149.3-1.806.211-1.314.287-1.808.124-.823.116-.825-.009,0-.009,0l.008,0,.008,0s0,0-.008-.007L2.187,6.632a2.118,2.118,0,0,0-.407.22,2.17,2.17,0,0,0-.35.3,2.291,2.291,0,0,0-.285.375,2.469,2.469,0,0,0-.211.439,2.073,2.073,0,0,0-.123.44,2.273,2.273,0,0,0-.028.465,2.442,2.442,0,0,0,.066.472,2.545,2.545,0,0,0,.16.462l9.544,20.876a2.514,2.514,0,0,0,.243.429,2.419,2.419,0,0,0,.314.364,2.254,2.254,0,0,0,.372.286,2.056,2.056,0,0,0,.417.2,2.5,2.5,0,0,0,.468.12,2.331,2.331,0,0,0,.467.025,2.212,2.212,0,0,0,.454-.069,2.159,2.159,0,0,0,.429-.163l14.815-6.933q-.243-.533-.493-.976a8.019,8.019,0,0,0-.508-.794,5,5,0,0,0-.523-.612A3.13,3.13,0,0,0,26.473,22.127Z" transform="translate(19.194 33.986)" fill="#6c63ff"/><path d="M28.777,25.131,13.891,32.1a2.246,2.246,0,0,1-.445.167,2.3,2.3,0,0,1-.47.071,2.425,2.425,0,0,1-.483-.026,2.6,2.6,0,0,1-.484-.124,2.151,2.151,0,0,1-.436-.2,2.359,2.359,0,0,1-.389-.3,2.53,2.53,0,0,1-.329-.38,2.63,2.63,0,0,1-.254-.449L1.057,9.978A2.67,2.67,0,0,1,.89,9.494,2.563,2.563,0,0,1,.821,9,2.386,2.386,0,0,1,.85,8.515a2.177,2.177,0,0,1,.128-.46A2.572,2.572,0,0,1,1.2,7.6a2.388,2.388,0,0,1,.295-.388A2.263,2.263,0,0,1,1.854,6.9a2.209,2.209,0,0,1,.42-.228L13,1.964l.012-.051.073.013.031.021.008,0,.007,0,.007.005.006.006L13.2,2l-.041.137c0,.068-.014.16-.03.287s-.04.289-.072.495-.072.457-.121.762-.107.665-.176,1.09c-.086.529-.155.953-.211,1.292s-.1.593-.133.783-.06.316-.082.4a.322.322,0,0,1-.058.139l-.021.009L6.513,10l2.777,6.081,8.53-3.862.042.093q.247.542.42,1.033a8.2,8.2,0,0,1,.271.928,5.183,5.183,0,0,1,.121.82,3.261,3.261,0,0,1-.03.711,2.365,2.365,0,0,1-.188.62,2.394,2.394,0,0,1-.352.547,2.9,2.9,0,0,1-.513.469,3.938,3.938,0,0,1-.672.386l-5.661,2.588,2.887,6.321,9.9-4.588a3.771,3.771,0,0,1,.706-.25,2.758,2.758,0,0,1,.669-.079,2.312,2.312,0,0,1,.629.092,2.362,2.362,0,0,1,.585.264h0a3.245,3.245,0,0,1,.55.441,5.164,5.164,0,0,1,.535.625,8.171,8.171,0,0,1,.518.807q.255.449.5.987ZM2.359,6.862a2.057,2.057,0,0,0-.392.212,2.107,2.107,0,0,0-.337.291,2.223,2.223,0,0,0-.275.361,2.394,2.394,0,0,0-.2.423,1.986,1.986,0,0,0-.118.42,2.178,2.178,0,0,0-.027.444,2.339,2.339,0,0,0,.062.451,2.438,2.438,0,0,0,.152.442l9.542,20.873a2.406,2.406,0,0,0,.232.409,2.315,2.315,0,0,0,.3.347,2.158,2.158,0,0,0,.355.273,1.968,1.968,0,0,0,.4.187,2.422,2.422,0,0,0,.452.116,2.255,2.255,0,0,0,.45.024,2.14,2.14,0,0,0,.438-.066,2.089,2.089,0,0,0,.415-.156l14.728-6.891q-.23-.505-.47-.925a7.537,7.537,0,0,0-.489-.754,4.839,4.839,0,0,0-.5-.582,3.06,3.06,0,0,0-.514-.409h0a2.169,2.169,0,0,0-.545-.245,2.144,2.144,0,0,0-.588-.084,2.607,2.607,0,0,0-.63.078,3.642,3.642,0,0,0-.67.239L14.068,27l-3.06-6.7,5.824-2.662a3.837,3.837,0,0,0,.636-.363,2.716,2.716,0,0,0,.483-.436,2.155,2.155,0,0,0,.505-1.087,3.086,3.086,0,0,0,.028-.665,4.892,4.892,0,0,0-.111-.766,7.8,7.8,0,0,0-.25-.868q-.159-.459-.387-.969L9.2,16.351,6.256,9.9l5.892-2.674c.022-.1.077-.412.148-.835s.159-.957.249-1.505.179-1.11.254-1.589.136-.874.166-1.089Z" transform="translate(19.072 33.849)" fill="#6c63ff"/><path d="M13.625,27.5a7.268,7.268,0,0,1-.95-.033,6.209,6.209,0,0,1-.888-.156,5.614,5.614,0,0,1-.827-.278,5.442,5.442,0,0,1-.765-.4,5.252,5.252,0,0,1-.692-.512,5.757,5.757,0,0,1-.617-.629,6.147,6.147,0,0,1-.528-.73,6.363,6.363,0,0,1-.425-.815A3.984,3.984,0,0,1,7.578,22.7a2.322,2.322,0,0,1,.138-1.073,2.4,2.4,0,0,1,.63-.9,4.278,4.278,0,0,1,1.12-.716,10.117,10.117,0,0,0,.639,1.113,7.151,7.151,0,0,0,.7.9,5.266,5.266,0,0,0,.77.687,4.247,4.247,0,0,0,.834.473,3.943,3.943,0,0,0,.89.26,4.077,4.077,0,0,0,.935.046,4.9,4.9,0,0,0,.981-.168,6.525,6.525,0,0,0,1.026-.381,7.016,7.016,0,0,0,.792-.428,5.1,5.1,0,0,0,.649-.482,3.89,3.89,0,0,0,.507-.536,3.248,3.248,0,0,0,.365-.59,2.457,2.457,0,0,0,.218-.61,2.9,2.9,0,0,0,.064-.67,3.261,3.261,0,0,0-.089-.694,3.447,3.447,0,0,0-.242-.684,3.387,3.387,0,0,0-.2-.4,3.3,3.3,0,0,0-.245-.368,3.13,3.13,0,0,0-.287-.326,2.894,2.894,0,0,0-.325-.276,2.293,2.293,0,0,0-.344-.193,2.888,2.888,0,0,0-.4-.147,3.8,3.8,0,0,0-.457-.1,5.1,5.1,0,0,0-.513-.054q-.379-.011-.756,0t-.751.034q-.374.026-.745.072t-.738.109q-.683.086-1.308.134t-1.192.056q-.567.008-1.076-.023t-.96-.1a7.378,7.378,0,0,1-.863-.186,6.235,6.235,0,0,1-.788-.278,5.518,5.518,0,0,1-.712-.37,5.181,5.181,0,0,1-.636-.463,6.042,6.042,0,0,1-.583-.572,7.357,7.357,0,0,1-.541-.685,9.2,9.2,0,0,1-.5-.8q-.238-.427-.455-.911a7.318,7.318,0,0,1-.349-.895,7.144,7.144,0,0,1-.225-.919,6.791,6.791,0,0,1-.1-.925A6.3,6.3,0,0,1,2.5,8.742a6.176,6.176,0,0,1,.16-.871,6.016,6.016,0,0,1,.281-.831,6.24,6.24,0,0,1,.4-.791A6.858,6.858,0,0,1,3.87,5.5a8.6,8.6,0,0,1,.687-.733,8.244,8.244,0,0,1,.756-.636A8.008,8.008,0,0,1,6.132,3.6a7.9,7.9,0,0,1,.875-.428,8.737,8.737,0,0,1,1.779-.606A8.971,8.971,0,0,1,9.72,2.4a9.262,9.262,0,0,1,.956-.061,7.116,7.116,0,0,1,.863.057,6.26,6.26,0,0,1,.813.159,5.784,5.784,0,0,1,.763.261,5.659,5.659,0,0,1,.713.363,4.541,4.541,0,0,1,.633.446,5.013,5.013,0,0,1,.565.557,5.374,5.374,0,0,1,.484.652,5.568,5.568,0,0,1,.389.731,3.447,3.447,0,0,1,.31,1.128,2.153,2.153,0,0,1-.143.987,2.4,2.4,0,0,1-.6.847,4.34,4.34,0,0,1-1.051.707,10.558,10.558,0,0,0-.588-.993,7.085,7.085,0,0,0-.62-.8,4.806,4.806,0,0,0-.651-.6,3.463,3.463,0,0,0-.683-.409,3,3,0,0,0-.731-.219,3.4,3.4,0,0,0-.8-.035,4.467,4.467,0,0,0-.86.149,6.372,6.372,0,0,0-.925.334,7.006,7.006,0,0,0-.756.391,4.987,4.987,0,0,0-.621.438,3.675,3.675,0,0,0-.486.485,2.934,2.934,0,0,0-.351.532,2.164,2.164,0,0,0-.21.551,2.561,2.561,0,0,0-.066.61,2.906,2.906,0,0,0,.078.636,3.1,3.1,0,0,0,.221.628,3.484,3.484,0,0,0,.193.4,3.415,3.415,0,0,0,.239.364,3.263,3.263,0,0,0,.28.325,3.047,3.047,0,0,0,.315.28,2.288,2.288,0,0,0,.332.2,2.724,2.724,0,0,0,.381.154,3.423,3.423,0,0,0,.431.107,4.434,4.434,0,0,0,.48.06q.344.013.685.01t.679-.022q.338-.019.672-.055t.665-.087q.713-.1,1.365-.155t1.24-.072q.589-.016,1.116.01t.992.092a7.788,7.788,0,0,1,.892.179,6.582,6.582,0,0,1,.815.272,5.815,5.815,0,0,1,.739.365,5.44,5.44,0,0,1,.663.458,5.877,5.877,0,0,1,.594.563,7.021,7.021,0,0,1,.546.674,8.672,8.672,0,0,1,.5.786q.237.421.451.9a7.963,7.963,0,0,1,.367.935,7.815,7.815,0,0,1,.243.962,7.476,7.476,0,0,1,.116.971,6.984,6.984,0,0,1-.015.962,6.4,6.4,0,0,1-.143.912,6.078,6.078,0,0,1-.271.866,6.166,6.166,0,0,1-.4.82,6.676,6.676,0,0,1-.527.775,7.453,7.453,0,0,1-.646.719,8.191,8.191,0,0,1-.755.653,9.373,9.373,0,0,1-.865.586q-.46.277-.975.52-.546.258-1.078.455t-1.05.332a9.474,9.474,0,0,1-1.022.209A8.253,8.253,0,0,1,13.625,27.5Z" transform="translate(100.357 0)" fill="#6c63ff"/><path d="M14.266,28.534a7.887,7.887,0,0,1-1.008-.022,6.666,6.666,0,0,1-.942-.15,5.945,5.945,0,0,1-.876-.278,5.675,5.675,0,0,1-.809-.406,5.4,5.4,0,0,1-.73-.522,5.85,5.85,0,0,1-.649-.645,6.19,6.19,0,0,1-.554-.751,6.377,6.377,0,0,1-.443-.84,3.989,3.989,0,0,1-.364-1.293,2.377,2.377,0,0,1,.157-1.115,2.571,2.571,0,0,1,.678-.937,4.7,4.7,0,0,1,1.2-.758,10.125,10.125,0,0,0,.667,1.145,7.2,7.2,0,0,0,.739.924,5.373,5.373,0,0,0,.81.7,4.419,4.419,0,0,0,.881.48,4.192,4.192,0,0,0,.942.258,4.42,4.42,0,0,0,.993.035A5.374,5.374,0,0,0,16,24.176a7.184,7.184,0,0,0,1.093-.409,7.732,7.732,0,0,0,.845-.454,5.593,5.593,0,0,0,.694-.508,4.217,4.217,0,0,0,.544-.562,3.457,3.457,0,0,0,.394-.616,2.565,2.565,0,0,0,.237-.636,2.956,2.956,0,0,0,.074-.7,3.282,3.282,0,0,0-.088-.719,3.449,3.449,0,0,0-.251-.706,3.388,3.388,0,0,0-.2-.416,3.315,3.315,0,0,0-.256-.379,3.165,3.165,0,0,0-.3-.334,2.959,2.959,0,0,0-.342-.282,2.416,2.416,0,0,0-.364-.2,3.1,3.1,0,0,0-.424-.149,4.149,4.149,0,0,0-.485-.1q-.258-.039-.546-.053-.4-.007-.8,0t-.8.043q-.4.031-.794.081t-.787.119q-.726.1-1.39.156t-1.267.073q-.6.016-1.143-.009t-1.018-.092a7.912,7.912,0,0,1-.915-.182,6.6,6.6,0,0,1-.834-.278,5.762,5.762,0,0,1-.752-.374,5.331,5.331,0,0,1-.67-.471,5.965,5.965,0,0,1-.61-.578,7.274,7.274,0,0,1-.565-.7,9.141,9.141,0,0,1-.519-.818Q3.5,13.495,3.276,13a7.344,7.344,0,0,1-.362-.924,7.182,7.182,0,0,1-.23-.951,6.864,6.864,0,0,1-.1-.959,6.427,6.427,0,0,1,.042-.947,6.348,6.348,0,0,1,.179-.9,6.281,6.281,0,0,1,.308-.865,6.616,6.616,0,0,1,.436-.825,7.375,7.375,0,0,1,.564-.786,9.306,9.306,0,0,1,.737-.769A8.991,8.991,0,0,1,5.664,4.4a8.784,8.784,0,0,1,.875-.564,8.692,8.692,0,0,1,.934-.455,9.587,9.587,0,0,1,1.9-.647,9.815,9.815,0,0,1,.993-.174,10.088,10.088,0,0,1,1.016-.072,7.661,7.661,0,0,1,.918.047,6.644,6.644,0,0,1,.862.154,6.042,6.042,0,0,1,.807.261,5.821,5.821,0,0,1,.751.369,4.681,4.681,0,0,1,.668.454,5.1,5.1,0,0,1,.595.569,5.412,5.412,0,0,1,.507.669,5.576,5.576,0,0,1,.406.753,3.457,3.457,0,0,1,.318,1.167,2.205,2.205,0,0,1-.161,1.026,2.559,2.559,0,0,1-.641.885,4.745,4.745,0,0,1-1.123.746,10.546,10.546,0,0,0-.614-1.02,7.136,7.136,0,0,0-.65-.819,4.911,4.911,0,0,0-.686-.618,3.617,3.617,0,0,0-.722-.416,3.189,3.189,0,0,0-.775-.219,3.671,3.671,0,0,0-.844-.026,4.869,4.869,0,0,0-.914.167,6.966,6.966,0,0,0-.985.36,7.7,7.7,0,0,0-.806.415,5.457,5.457,0,0,0-.664.462,3.984,3.984,0,0,0-.521.509,3.131,3.131,0,0,0-.378.556,2.26,2.26,0,0,0-.23.575,2.614,2.614,0,0,0-.077.634,2.922,2.922,0,0,0,.076.659,3.1,3.1,0,0,0,.229.649,3.479,3.479,0,0,0,.2.408,3.422,3.422,0,0,0,.25.374,3.292,3.292,0,0,0,.294.333,3.1,3.1,0,0,0,.332.286,2.371,2.371,0,0,0,.351.206,2.851,2.851,0,0,0,.4.156,3.617,3.617,0,0,0,.457.105,4.723,4.723,0,0,0,.509.055q.365.009.727,0t.721-.032q.359-.024.715-.065t.707-.1q.759-.11,1.452-.178t1.319-.091q.626-.024,1.187-.005t1.056.081a8.3,8.3,0,0,1,.949.173,6.89,6.89,0,0,1,.864.271A5.974,5.974,0,0,1,20,13.8a5.49,5.49,0,0,1,.7.468,6,6,0,0,1,.625.576,7.1,7.1,0,0,1,.573.692,8.7,8.7,0,0,1,.522.809q.248.433.47.925a7.96,7.96,0,0,1,.381.965,7.824,7.824,0,0,1,.249.994,7.521,7.521,0,0,1,.114,1.005,7.083,7.083,0,0,1-.025,1,6.639,6.639,0,0,1-.167.943,6.434,6.434,0,0,1-.3.9,6.654,6.654,0,0,1-.433.856,7.314,7.314,0,0,1-.566.813,8.057,8.057,0,0,1-.69.757,8.9,8.9,0,0,1-.8.689,10.2,10.2,0,0,1-.92.621q-.489.294-1.036.554-.585.274-1.153.484t-1.122.357a10.524,10.524,0,0,1-1.09.23A9.118,9.118,0,0,1,14.266,28.534Z" transform="translate(63.524 15.523)" fill="#6c63ff"/><path d="M12.142,31.732a2.7,2.7,0,0,1-.46-.259,2.9,2.9,0,0,1-.409-.346,3.048,3.048,0,0,1-.345-.421,3.135,3.135,0,0,1-.271-.485l-9-19.595a5.72,5.72,0,0,1-.325-.882,4.058,4.058,0,0,1-.14-.826,3.173,3.173,0,0,1,.045-.77,2.921,2.921,0,0,1,.23-.714,3.215,3.215,0,0,1,.419-.659A4.313,4.313,0,0,1,2.5,6.169a6.277,6.277,0,0,1,.8-.555,9.344,9.344,0,0,1,.995-.5l9.863,21.5,8.486-3.935a3.766,3.766,0,0,1,.719-.253,2.844,2.844,0,0,1,.689-.079,2.524,2.524,0,0,1,.659.1,2.742,2.742,0,0,1,.629.269,3.532,3.532,0,0,1,.6.439,4.868,4.868,0,0,1,.559.605,7.035,7.035,0,0,1,.523.771,10.243,10.243,0,0,1,.486.937L14.063,31.757a2.053,2.053,0,0,1-.459.16,2.118,2.118,0,0,1-.484.049,2.249,2.249,0,0,1-.493-.062,2.428,2.428,0,0,1-.485-.173Z" transform="translate(0 42.92)" fill="#6c63ff"/><path d="M.26,2.639a.7.7,0,0,1-.043-.12A.68.68,0,0,1,.2,2.4a.635.635,0,0,1,0-.122.575.575,0,0,1,.027-.116.628.628,0,0,1,.049-.112.568.568,0,0,1,.068-.1.523.523,0,0,1,.084-.077.5.5,0,0,1,.1-.056L2.6.832A2.431,2.431,0,0,1,3.013.679,1.876,1.876,0,0,1,3.407.616a1.612,1.612,0,0,1,.736.135,1.655,1.655,0,0,1,.333.2,2.014,2.014,0,0,1,.3.28,2.714,2.714,0,0,1,.266.362,3.833,3.833,0,0,1,.234.442,2.382,2.382,0,0,1,.177.5A2.321,2.321,0,0,1,5.5,2.79a2.236,2.236,0,0,1,.015.261,1.8,1.8,0,0,1-.028.241,1.67,1.67,0,0,1-.059.228,1.543,1.543,0,0,1-.089.212,1.424,1.424,0,0,1-.118.191l.013.029a1.294,1.294,0,0,1,.4.082,1.276,1.276,0,0,1,.351.2,1.673,1.673,0,0,1,.3.325,2.591,2.591,0,0,1,.254.447l.332.734a1.06,1.06,0,0,1,.078.2,1.031,1.031,0,0,1,.035.209.954.954,0,0,1-.01.206.849.849,0,0,1-.054.194,1.4,1.4,0,0,1-.127.2,1.294,1.294,0,0,1-.155.171,1.221,1.221,0,0,1-.18.137,1.184,1.184,0,0,1-.2.1l-.723-1.6a1.484,1.484,0,0,0-.089-.194A1.45,1.45,0,0,0,5.327,5.2a1.382,1.382,0,0,0-.136-.155,1.289,1.289,0,0,0-.156-.131.7.7,0,0,0-.154-.059.625.625,0,0,0-.155-.019.576.576,0,0,0-.151.021.562.562,0,0,0-.14.061l-1.553.743L3.624,7.3a1.064,1.064,0,0,1,.08.2,1.038,1.038,0,0,1,.036.211.963.963,0,0,1-.009.208.859.859,0,0,1-.054.2,1.387,1.387,0,0,1-.126.2,1.287,1.287,0,0,1-.153.168,1.216,1.216,0,0,1-.178.135,1.18,1.18,0,0,1-.2.1ZM3.9,3.869a.7.7,0,0,0,.154-.083.733.733,0,0,0,.13-.12.8.8,0,0,0,.1-.151.9.9,0,0,0,.07-.178,1.159,1.159,0,0,0,.021-.206,1.25,1.25,0,0,0-.015-.209,1.31,1.31,0,0,0-.05-.207,1.327,1.327,0,0,0-.084-.2A1.738,1.738,0,0,0,4,2.121a.855.855,0,0,0-.28-.229.648.648,0,0,0-.323-.064.98.98,0,0,0-.366.1l-1.508.717L2.4,4.588Z" transform="translate(74.321 51.352)" fill="#6c63ff"/><path d="M.738,1.752a.694.694,0,0,1-.129-.071.775.775,0,0,1-.115-.1A.842.842,0,0,1,.4,1.46a.881.881,0,0,1-.075-.141.87.87,0,0,1-.055-.148A.846.846,0,0,1,.24,1.019a.791.791,0,0,1,0-.151A.715.715,0,0,1,.273.723.791.791,0,0,1,.423.468.683.683,0,0,1,.642.3.669.669,0,0,1,.905.24a.751.751,0,0,1,.287.048.679.679,0,0,1,.128.069.758.758,0,0,1,.114.1.824.824,0,0,1,.1.119A.863.863,0,0,1,1.6.711a.887.887,0,0,1,.056.15.864.864,0,0,1,.028.154.809.809,0,0,1,0,.153.733.733,0,0,1-.03.147.794.794,0,0,1-.151.254.688.688,0,0,1-.218.164.673.673,0,0,1-.263.064A.755.755,0,0,1,.738,1.752Zm.583,1.362a.763.763,0,0,1-.066-.169.735.735,0,0,1-.024-.174A.663.663,0,0,1,1.25,2.6a.572.572,0,0,1,.061-.153,1.569,1.569,0,0,1,.138-.164,1.492,1.492,0,0,1,.156-.14,1.439,1.439,0,0,1,.172-.115,1.412,1.412,0,0,1,.186-.089L3.829,6.068a.762.762,0,0,1,.066.169.736.736,0,0,1,.023.174A.665.665,0,0,1,3.9,6.58a.574.574,0,0,1-.062.153A1.533,1.533,0,0,1,3.7,6.9a1.453,1.453,0,0,1-.154.142,1.4,1.4,0,0,1-.171.117,1.37,1.37,0,0,1-.186.089Z" transform="translate(79.472 50.265)" fill="#6c63ff"/><path d="M3.84,7.776a1.337,1.337,0,0,1-.185,0,1.407,1.407,0,0,1-.186-.025,1.5,1.5,0,0,1-.185-.05A1.6,1.6,0,0,1,3.1,7.627a.864.864,0,0,1-.14-.084.953.953,0,0,1-.126-.11A1.029,1.029,0,0,1,2.727,7.3a1.079,1.079,0,0,1-.087-.153.632.632,0,0,1-.055-.134.614.614,0,0,1-.022-.139.56.56,0,0,1,.011-.136.487.487,0,0,1,.044-.125,1.063,1.063,0,0,1,.093-.121,1,1,0,0,1,.107-.1.959.959,0,0,1,.12-.085.935.935,0,0,1,.131-.065,1.076,1.076,0,0,0,.1.158,1.014,1.014,0,0,0,.121.134.927.927,0,0,0,.139.107.831.831,0,0,0,.153.075,1.017,1.017,0,0,0,.187.031.946.946,0,0,0,.184-.005.9.9,0,0,0,.342-.116A1.369,1.369,0,0,0,4.5,6.5a.925.925,0,0,0,.153-.135.7.7,0,0,0,.105-.153.641.641,0,0,0,.057-.172,1.321,1.321,0,0,0,.011-.21A1.408,1.408,0,0,0,4.8,5.619a1.473,1.473,0,0,0-.138-.411l-.143-.318q.015-.032.027-.065t.022-.068q.01-.035.017-.07T4.6,4.615l-.052-.031a1.773,1.773,0,0,1-.063.181,1.668,1.668,0,0,1-.081.169,1.571,1.571,0,0,1-.1.155,1.486,1.486,0,0,1-.113.141q-.059.071-.123.135a1.779,1.779,0,0,1-.134.12,1.73,1.73,0,0,1-.144.1,1.7,1.7,0,0,1-.154.089,1.532,1.532,0,0,1-.415.14A1.579,1.579,0,0,1,3,5.844a1.646,1.646,0,0,1-.225-.006,1.437,1.437,0,0,1-.423-.111,1.681,1.681,0,0,1-.387-.234,1.921,1.921,0,0,1-.329-.34,2.081,2.081,0,0,1-.249-.428L.759,3.333A2.056,2.056,0,0,1,.67,3.1a2.033,2.033,0,0,1-.061-.238,1.974,1.974,0,0,1-.031-.241,1.882,1.882,0,0,1,0-.24A2,2,0,0,1,.6,2.149a1.872,1.872,0,0,1,.054-.224,1.745,1.745,0,0,1,.079-.21,1.623,1.623,0,0,1,.1-.194,1.565,1.565,0,0,1,.126-.177,1.474,1.474,0,0,1,.146-.153,1.407,1.407,0,0,1,.164-.128,1.367,1.367,0,0,1,.181-.1A1.31,1.31,0,0,1,1.849.83,1.357,1.357,0,0,1,2.056.811a1.425,1.425,0,0,1,.212.013,2.032,2.032,0,0,1,.207.05,2.143,2.143,0,0,1,.2.072q.1.041.2.093t.193.114L3.087,1.1l-.063-.047-.064-.044L2.894.97,2.827.931A.491.491,0,0,1,2.781.68.5.5,0,0,1,2.873.442.993.993,0,0,1,3.1.215,2.282,2.282,0,0,1,3.475,0L5.542,4.577a2.778,2.778,0,0,1,.2.592,2.7,2.7,0,0,1,.049.306,2.6,2.6,0,0,1,.013.307,2.287,2.287,0,0,1-.024.286,2.137,2.137,0,0,1-.059.273,1.981,1.981,0,0,1-.093.256,1.831,1.831,0,0,1-.125.236,2.006,2.006,0,0,1-.163.226,1.889,1.889,0,0,1-.189.2,1.8,1.8,0,0,1-.212.164,1.751,1.751,0,0,1-.233.129,2.182,2.182,0,0,1-.421.159,2.211,2.211,0,0,1-.221.046A2.257,2.257,0,0,1,3.84,7.776ZM3.9,4.083a.613.613,0,0,0,.051-.14.7.7,0,0,0,.018-.153.765.765,0,0,0-.015-.158.8.8,0,0,0-.049-.156l-.6-1.322a.788.788,0,0,0-.083-.141A.737.737,0,0,0,3.121,1.9.66.66,0,0,0,3,1.812a.576.576,0,0,0-.138-.052.979.979,0,0,0-.173-.032.91.91,0,0,0-.171,0,.867.867,0,0,0-.165.033.854.854,0,0,0-.155.064.843.843,0,0,0-.152.077.873.873,0,0,0-.134.106.932.932,0,0,0-.114.132A1.016,1.016,0,0,0,1.7,2.3a.72.72,0,0,0-.039.158.806.806,0,0,0,0,.167.868.868,0,0,0,.03.168.891.891,0,0,0,.064.163L2.31,4.184a.891.891,0,0,0,.08.151.847.847,0,0,0,.1.129.773.773,0,0,0,.124.1.685.685,0,0,0,.139.071.937.937,0,0,0,.177.032.867.867,0,0,0,.174,0,.827.827,0,0,0,.167-.037.818.818,0,0,0,.156-.071.846.846,0,0,0,.145-.08A.88.88,0,0,0,3.7,4.372.942.942,0,0,0,3.81,4.24,1.025,1.025,0,0,0,3.9,4.086Z" transform="translate(82.402 50.092)" fill="#6c63ff"/><path d="M.406,2.537a1.044,1.044,0,0,1-.075-.193,1.013,1.013,0,0,1-.034-.2.937.937,0,0,1,.007-.2.832.832,0,0,1,.048-.186,1.233,1.233,0,0,1,.111-.188A1.133,1.133,0,0,1,.6,1.414a1.062,1.062,0,0,1,.163-.127,1.027,1.027,0,0,1,.184-.092L2.039,3.611q-.01.046-.019.094t-.014.1Q2,3.849,2,3.9T1.991,4l.061.015a2.148,2.148,0,0,1,.089-.5,1.87,1.87,0,0,1,.194-.433,1.634,1.634,0,0,1,.288-.351,1.486,1.486,0,0,1,.37-.249,1.2,1.2,0,0,1,.183-.075,1.218,1.218,0,0,1,.193-.044,1.262,1.262,0,0,1,.2-.013,1.333,1.333,0,0,1,.2.019,1.312,1.312,0,0,1,.191.049,1.42,1.42,0,0,1,.186.078,1.538,1.538,0,0,1,.178.106,1.656,1.656,0,0,1,.168.132,2.084,2.084,0,0,1,.162.164,2.181,2.181,0,0,1,.145.182,2.253,2.253,0,0,1,.126.2,2.3,2.3,0,0,1,.106.213L6.146,5.955a.76.76,0,0,1,.066.167.733.733,0,0,1,.024.172.66.66,0,0,1-.018.167.566.566,0,0,1-.06.151,1.506,1.506,0,0,1-.133.164,1.424,1.424,0,0,1-.152.14,1.367,1.367,0,0,1-.169.115,1.338,1.338,0,0,1-.183.088L4.162,4.11a1.067,1.067,0,0,0-.078-.154,1.028,1.028,0,0,0-.1-.136.958.958,0,0,0-.118-.115.871.871,0,0,0-.134-.09.736.736,0,0,0-.154-.052.659.659,0,0,0-.155-.015.61.61,0,0,0-.15.022.6.6,0,0,0-.14.059.827.827,0,0,0-.169.1.875.875,0,0,0-.143.135.96.96,0,0,0-.114.168,1.057,1.057,0,0,0-.12.4,1.175,1.175,0,0,0,0,.215,1.253,1.253,0,0,0,.039.216,1.285,1.285,0,0,0,.078.21l.939,2.08a.765.765,0,0,1,.065.168.738.738,0,0,1,.024.173.666.666,0,0,1-.018.167.572.572,0,0,1-.06.152,1.494,1.494,0,0,1-.132.164,1.413,1.413,0,0,1-.151.14,1.357,1.357,0,0,1-.167.115,1.329,1.329,0,0,1-.182.088Z" transform="translate(85.906 46.18)" fill="#6c63ff"/><path d="M3.675,6.606a1.872,1.872,0,0,1-.248-.187,2.037,2.037,0,0,1-.22-.229,2.165,2.165,0,0,1-.186-.265,2.237,2.237,0,0,1-.147-.3l-1.035-2.3L1.059,3.7a1.373,1.373,0,0,1-.128-.35A1.326,1.326,0,0,1,.9,3.173a1.255,1.255,0,0,1,0-.182.57.57,0,0,1,.031-.127.5.5,0,0,1,.057-.109.439.439,0,0,1,.079-.087.4.4,0,0,1,.1-.061l.3-.141L1.12,1.7a.763.763,0,0,1-.066-.165.736.736,0,0,1-.025-.171.663.663,0,0,1,.016-.166A.568.568,0,0,1,1.1,1.043,1.428,1.428,0,0,1,1.229.884,1.349,1.349,0,0,1,1.376.748,1.3,1.3,0,0,1,1.539.637,1.268,1.268,0,0,1,1.716.553L2.38,2.025l1-.478a1.324,1.324,0,0,1,.13.359,1.271,1.271,0,0,1,.024.186,1.194,1.194,0,0,1,0,.186.711.711,0,0,1-.057.142.63.63,0,0,1-.083.12.571.571,0,0,1-.105.093.542.542,0,0,1-.125.064l-.385.184L3.792,5.129a.9.9,0,0,0,.055.123.878.878,0,0,0,.071.111A.832.832,0,0,0,4,5.46a.768.768,0,0,0,.1.081.5.5,0,0,0,.108.031.452.452,0,0,0,.107.006.422.422,0,0,0,.1-.02.417.417,0,0,0,.1-.045,1.009,1.009,0,0,0,.132-.08,1.046,1.046,0,0,0,.119-.1,1.1,1.1,0,0,0,.105-.118,1.177,1.177,0,0,0,.09-.135.676.676,0,0,1,.113.065.751.751,0,0,1,.1.088.816.816,0,0,1,.088.107.858.858,0,0,1,.071.123.824.824,0,0,1,.046.157.784.784,0,0,1,.014.158.711.711,0,0,1-.019.152.624.624,0,0,1-.051.14,1.189,1.189,0,0,1-.105.175,1.092,1.092,0,0,1-.13.149,1.023,1.023,0,0,1-.152.12.986.986,0,0,1-.171.088,1.507,1.507,0,0,1-.292.114,1.107,1.107,0,0,1-.28.039.956.956,0,0,1-.266-.036A1.026,1.026,0,0,1,3.675,6.606Z" transform="translate(90.06 45.046)" fill="#6c63ff"/><path d="M.446,2.978a1.208,1.208,0,0,1-.079-.206,1.175,1.175,0,0,1-.039-.213,1.093,1.093,0,0,1,0-.211.98.98,0,0,1,.042-.2,1.139,1.139,0,0,1,.093-.193,1.028,1.028,0,0,1,.123-.164.947.947,0,0,1,.15-.132.9.9,0,0,1,.173-.1L5.638,5.23l.041-.11-.586-.478L3.214.469a1.1,1.1,0,0,1,.4-.137A1.163,1.163,0,0,1,3.83.323a1.25,1.25,0,0,1,.22.03.786.786,0,0,1,.174.084.9.9,0,0,1,.155.126,1,1,0,0,1,.129.161,1.06,1.06,0,0,1,.1.19L6.792,5.772a1.011,1.011,0,0,1,.059.177.973.973,0,0,1,.025.18.9.9,0,0,1-.01.177.8.8,0,0,1-.045.166.956.956,0,0,1-.071.164.858.858,0,0,1-.1.141.783.783,0,0,1-.12.115.738.738,0,0,1-.14.085L1.437,3.122,1.4,3.241l.59.481L3.57,7.232a1.065,1.065,0,0,1,.078.2,1.036,1.036,0,0,1,.036.206.954.954,0,0,1-.007.2.842.842,0,0,1-.051.192,1.337,1.337,0,0,1-.121.193,1.23,1.23,0,0,1-.147.163,1.155,1.155,0,0,1-.171.131,1.116,1.116,0,0,1-.192.1Z" transform="translate(95.375 41.335)" fill="#6c63ff"/><path d="M2.878,5.768a1.49,1.49,0,0,1-.226-.026,1.606,1.606,0,0,1-.224-.061,1.742,1.742,0,0,1-.219-.094A1.89,1.89,0,0,1,2,5.46a1.657,1.657,0,0,1-.187-.152,1.786,1.786,0,0,1-.167-.181A1.888,1.888,0,0,1,1.5,4.922,1.95,1.95,0,0,1,1.381,4.7L.8,3.4A2.131,2.131,0,0,1,.7,3.156,2.1,2.1,0,0,1,.641,2.9,2.031,2.031,0,0,1,.61,2.649a1.921,1.921,0,0,1,0-.253A2.116,2.116,0,0,1,.648,2.14,1.964,1.964,0,0,1,.715,1.9a1.813,1.813,0,0,1,.095-.225,1.672,1.672,0,0,1,.122-.2,2.023,2.023,0,0,1,.164-.206,1.911,1.911,0,0,1,.185-.179,1.831,1.831,0,0,1,.205-.15A1.785,1.785,0,0,1,1.708.815,1.8,1.8,0,0,1,2.186.653a1.858,1.858,0,0,1,.253-.03,1.938,1.938,0,0,1,.259,0,1.552,1.552,0,0,1,.231.036,1.676,1.676,0,0,1,.228.071,1.819,1.819,0,0,1,.222.1,1.972,1.972,0,0,1,.213.137,1.822,1.822,0,0,1,.189.162,1.952,1.952,0,0,1,.168.188,2.052,2.052,0,0,1,.146.212,2.114,2.114,0,0,1,.12.232L4.795,3.06a1.933,1.933,0,0,1,.091.239,1.905,1.905,0,0,1,.059.246,1.831,1.831,0,0,1,.025.248,1.719,1.719,0,0,1-.01.245,2.047,2.047,0,0,1-.044.248,1.9,1.9,0,0,1-.073.234,1.749,1.749,0,0,1-.1.216,1.615,1.615,0,0,1-.127.2,2.246,2.246,0,0,1-.356.367,2.1,2.1,0,0,1-.418.266,2.062,2.062,0,0,1-.466.159,2.144,2.144,0,0,1-.5.045ZM3.891,4.094a.735.735,0,0,0,.041-.16.831.831,0,0,0,.006-.17.9.9,0,0,0-.028-.172.932.932,0,0,0-.062-.168L3.323,2.259a1.042,1.042,0,0,0-.088-.166.989.989,0,0,0-.113-.143.9.9,0,0,0-.134-.116.8.8,0,0,0-.151-.083,1,1,0,0,0-.358-.044.9.9,0,0,0-.329.085.92.92,0,0,0-.276.2,1.063,1.063,0,0,0-.2.31.836.836,0,0,0-.037.172.936.936,0,0,0,0,.181,1.009,1.009,0,0,0,.032.183,1.039,1.039,0,0,0,.067.177l.525,1.166a.913.913,0,0,0,.084.158.861.861,0,0,0,.11.134.774.774,0,0,0,.131.1.674.674,0,0,0,.146.07,1.065,1.065,0,0,0,.353.024.975.975,0,0,0,.324-.091,1,1,0,0,0,.276-.2A1.132,1.132,0,0,0,3.891,4.094Z" transform="translate(100.933 41.304)" fill="#6c63ff"/><path d="M3.2,6.352a.725.725,0,0,1-.144-.043.817.817,0,0,1-.136-.073.913.913,0,0,1-.126-.1,1,1,0,0,1-.111-.125L.045,2.437q.014-.024.03-.046A.531.531,0,0,1,.11,2.35a.507.507,0,0,1,.038-.037.49.49,0,0,1,.041-.033l.052-.039.053-.036.055-.032.057-.029a.6.6,0,0,1,.1-.042.609.609,0,0,1,.106-.023.636.636,0,0,1,.11,0,.681.681,0,0,1,.112.015.493.493,0,0,1,.094.032.555.555,0,0,1,.088.051.618.618,0,0,1,.081.068.673.673,0,0,1,.071.084L2.709,4.577l.13.548.054,0L2.184,1.759a.708.708,0,0,1-.009-.09.668.668,0,0,1,0-.088A.619.619,0,0,1,2.192,1.5a.567.567,0,0,1,.026-.08.519.519,0,0,1,.044-.08.471.471,0,0,1,.056-.068.436.436,0,0,1,.066-.055.418.418,0,0,1,.075-.04.454.454,0,0,1,.082-.034.461.461,0,0,1,.086-.018.484.484,0,0,1,.09,0,.523.523,0,0,1,.091.015.455.455,0,0,1,.077.029.506.506,0,0,1,.072.043.558.558,0,0,1,.067.056.6.6,0,0,1,.059.068L4.777,3.671l.128.581h.052L4.144.914A.667.667,0,0,1,4.127.8a.62.62,0,0,1,0-.108.56.56,0,0,1,.021-.1A.5.5,0,0,1,4.189.5.734.734,0,0,1,4.251.4.676.676,0,0,1,4.326.318.635.635,0,0,1,4.412.25.612.612,0,0,1,4.507.2L4.566.172l.06-.023L4.688.13,4.751.115,4.8.1l.051,0H4.9l.052.006.933,4.365a.99.99,0,0,1,.02.175.91.91,0,0,1-.012.169.812.812,0,0,1-.042.157.712.712,0,0,1-.072.14,1.317,1.317,0,0,1-.107.148,1.234,1.234,0,0,1-.123.128,1.172,1.172,0,0,1-.138.107,1.135,1.135,0,0,1-.152.084l-2.4-3.311L2.837,2.3l.258.356.744,3.606a.977.977,0,0,1-.15.061.989.989,0,0,1-.158.035,1.027,1.027,0,0,1-.164.009A1.091,1.091,0,0,1,3.2,6.352Z" transform="translate(104.586 38.863)" fill="#6c63ff"/><path d="M3.029,6.873A.729.729,0,0,1,2.895,6.8a.826.826,0,0,1-.12-.106.908.908,0,0,1-.1-.13.958.958,0,0,1-.079-.15.987.987,0,0,1-.06-.16A.962.962,0,0,1,2.5,6.086a.9.9,0,0,1,0-.164.806.806,0,0,1,.029-.157.829.829,0,0,1,.154-.272.7.7,0,0,1,.227-.175.675.675,0,0,1,.275-.066.772.772,0,0,1,.3.055.759.759,0,0,1,.134.079.856.856,0,0,1,.12.107.937.937,0,0,1,.1.13.987.987,0,0,1,.08.15.966.966,0,0,1,.06.159.941.941,0,0,1,.031.164.876.876,0,0,1,0,.163.785.785,0,0,1-.03.156.839.839,0,0,1-.156.269.708.708,0,0,1-.226.173.687.687,0,0,1-.274.067.781.781,0,0,1-.3-.05ZM.57.62A1.331,1.331,0,0,1,.689.442,1.229,1.229,0,0,1,.83.291,1.157,1.157,0,0,1,.993.169,1.121,1.121,0,0,1,1.173.078L2.8,3.7a1.041,1.041,0,0,1,.075.2,1.006,1.006,0,0,1,.033.2.917.917,0,0,1-.01.2.8.8,0,0,1-.053.186,1.283,1.283,0,0,1-.113.186,1.173,1.173,0,0,1-.139.157,1.1,1.1,0,0,1-.161.127,1.056,1.056,0,0,1-.181.093L.608,1.387a.966.966,0,0,1-.076-.193A.932.932,0,0,1,.5.995.842.842,0,0,1,.511.8.724.724,0,0,1,.568.621Z" transform="translate(109.371 36.069)" fill="#6c63ff"/></g><g transform="translate(218.971 301.699)"><path d="M10.853,31.033q.5,1.052.724,1.869t.167,1.593q-.085.959-.6,1.689T9.777,37.3q-.992.448-2.039.249t-1.9-1q-.453-.443-.851-1.047t-.751-1.356q-.455-.97-.715-1.794t-.3-1.482q-.049-1.1.457-1.91t1.52-1.27q.67-.3,1.317-.333t1.255.2q.608.227,1.181.706Q9.939,29.1,10.853,31.033Zm-1.844.676q-.553-1.174-1.048-1.856t-1.013-.911q-.518-.229-1.117.041-.859.387-.794,1.391t.9,2.783q.568,1.208,1.074,1.915t1.032.95q.525.243,1.106-.02.6-.271.745-.836t-.078-1.392Q9.592,32.949,9.009,31.71Zm7.121-6.939-3.084,1.39.611,2.24q.693-.9,1.472-1.254.624-.281,1.275-.3t1.253.207q.6.222,1.1.673t.8,1.092q.442.929.382,1.883T19.3,32.47q-.584.81-1.625,1.28-1.165.527-2.092.43t-1.489-.509q-.562-.413-.757-.824-.118-.25-.013-.571t.424-.464q.547-.247,1.108.255.531.454,1.124.572t1.14-.129q.5-.226.756-.654t.247-.969q-.008-.541-.279-1.112-.292-.615-.72-.951t-.9-.383q-.472-.047-.927.158-.559.252-.736.5t-.47.783q-.293.541-.586.673-.319.144-.674.028t-.491-.4q-.015-.032-.134-.468l-.9-3.312q-.169-.591-.04-.951t.687-.612l3.427-1.543q1.012-.456,1.373.3.158.332.008.647T16.13,24.771ZM23.754,31q-.4.182-.817.058t-.634-.586q-.186-.391-.041-.8t.554-.593q.409-.185.831-.037t.611.545q.217.455.052.845T23.754,31Zm-3.916-5.707q-.216-.454-.046-.833t.579-.563q.4-.178.8-.055t.619.57q.171.358,0,.8t-.531.6q-.4.179-.818.02T19.838,25.295Zm10.97-3.264q.5,1.046.735,1.857t.177,1.583q-.078.953-.582,1.679t-1.36,1.113q-.986.446-2.031.248t-1.906-.992q-.455-.44-.856-1.041t-.758-1.348q-.461-.964-.726-1.784t-.31-1.473q-.056-1.09.442-1.9t1.507-1.263q.666-.3,1.311-.331t1.253.194q.607.225,1.182.7Q29.884,20.107,30.808,22.031Zm-1.834.672q-.56-1.167-1.058-1.845T26.9,19.954q-.518-.227-1.113.041-.854.385-.782,1.382t.917,2.766q.574,1.2,1.084,1.9t1.035.944q.525.241,1.1-.019.6-.269.737-.831t-.088-1.383Q29.564,23.935,28.973,22.7Zm8.918.727-.573-1.187L34.072,23.71q-.615.278-1.054.142t-.666-.608q-.058-.121-.073-.266t.01-.323q.025-.178.06-.349t.089-.42l1.252-6.054q.121-.6.241-.893t.423-.434q.98-.441,1.514.662l2.377,4.92.278-.125q.5-.224.862-.226t.584.45q.179.369.015.649t-.655.5l-.394.178.573,1.186q.237.491.133.83t-.473.505q-.362.164-.7.019T37.891,23.43Zm-4.041-1.36,2.78-1.255-1.784-3.7Zm13.906-6.54L46,16.322l1.284,2.638q.276.566.147.982t-.541.6q-.432.2-.838.025t-.678-.731l-3.486-7.176q-.3-.621-.141-1.017t.791-.68l2.451-1.1q1.086-.489,1.752-.588T48,9.348q.6.177,1.078.61t.8,1.1q.693,1.418.163,2.55T47.756,15.531Zm-2.539-4.051-1.287.58,1.382,2.84,1.288-.581q.676-.3,1.062-.649t.469-.768q.083-.424-.167-.937-.3-.614-.855-.835Q46.5,10.9,45.217,11.481ZM57.154,14,52.745,8.768l3.141,6.408q.261.533.151.909t-.51.556q-.386.175-.76.021t-.638-.693l-3.6-7.347q-.3-.606-.079-.962t.763-.6l.59-.266q.533-.24.82-.253t.523.18q.236.194.656.683l3.86,4.46L56.539,6.172q-.126-.621-.131-.919t.188-.5q.194-.2.726-.442l.589-.265q.544-.245.969-.178t.723.671l3.614,7.326q.262.532.153.907t-.514.558q-.379.171-.754.015t-.637-.688l-3.151-6.4,1.4,6.585q.136.643.175.955t-.1.647q-.141.335-.585.536-.334.151-.636.113t-.539-.2q-.238-.164-.444-.4T57.154,14Z" transform="translate(0)" fill="#6c63ff"/><path d="M.3.67l.288.741q.012.031,0,.053T.562,1.5Q.54,1.506.52,1.5T.488,1.459L.2.718Q.188.688.2.665T.226.632q.022-.011.042,0T.3.67Z" transform="translate(47.512 3.85)" fill="#6c63ff"/></g><g transform="translate(143.705 241.839)"><g transform="translate(0 0)"><path d="M14.194,47.326q.242.494.3,1.185T14.346,50q-.208.8-.783,1.533t-1.568,1.244q-.753.389-1.447.552t-1.36.094q-.666-.069-1.354-.39-.618-.295-1.182-.763T5.617,51.183q-.471-.62-.849-1.394Q4.153,48.533,4,47.368t.133-2.191q.282-1.025.944-1.822t1.613-1.28Q7.852,41.485,9,41.528t1.989.536q.84.494,1.162,1.15.176.36.078.755t-.429.564q-.369.189-.648.093t-.733-.447q-.753-.578-1.45-.7t-1.445.259q-1.192.608-1.418,1.953t.662,3.162q.593,1.212,1.3,1.856t1.473.746q.766.1,1.533-.293.831-.428,1.185-1.173t.22-1.764q-.077-.473-.022-.824t.457-.557q.343-.176.717-.041T14.194,47.326Zm7.941-4.671q.419.857.53,1.706t-.1,1.607q-.207.758-.712,1.367t-1.308,1.024q-.8.412-1.571.459t-1.5-.237q-.724-.284-1.317-.876t-1.017-1.46q-.428-.875-.538-1.728t.1-1.6q.206-.749.722-1.36t1.3-1.012q.8-.407,1.585-.458t1.5.234q.716.284,1.307.878T22.135,42.655Zm-1.756.9q-.575-1.175-1.366-1.587t-1.59,0q-.515.264-.765.757T16.474,43.9q.067.68.439,1.441t.854,1.21q.485.456,1.021.555t1.063-.173q.8-.411.946-1.312T20.379,43.557Zm8.982-4.438L30.6,41.658q.294.6.194,1.03t-.506.638q-.393.2-.785.029t-.686-.777l-1.49-3.046q-.353-.721-.593-1.1t-.562-.531q-.322-.155-.749.064-.854.437-.81,1.221t.634,1.99l1.266,2.588q.292.6.2,1.028t-.5.639q-.4.2-.8.029t-.693-.772l-2.682-5.483q-.264-.541-.175-.937t.461-.586q.358-.183.726-.042t.595.6l.089.182q.162-.828.541-1.372t1.01-.866q.656-.335,1.267-.288t1.2.471q.151-.812.514-1.351t.971-.85q.71-.362,1.373-.317t1.2.488q.474.4,1.016,1.513l1.819,3.719q.293.6.194,1.027t-.5.636q-.391.2-.79.027t-.689-.769l-1.568-3.206q-.3-.615-.529-.961t-.561-.49q-.332-.145-.757.073-.342.175-.541.556t-.185.847Q28.762,37.894,29.361,39.119Zm6-6.743,2.687,5.493q.279.571.177.99t-.479.614q-.377.195-.76.017t-.655-.735l-2.662-5.443q-.276-.565-.179-.971t.475-.6q.378-.193.763-.033T35.364,32.375Zm-1.811-1.53q-.359.183-.734.07t-.593-.56q-.2-.4-.064-.8t.481-.571q.334-.17.708-.065t.6.558q.215.439.084.814T33.553,30.846Zm5.125-.2.112.229q.128-.891.512-1.473t1.078-.937q.675-.345,1.365-.29t1.243.517q.338.26.584.637t.551,1l1.721,3.52q.278.568.187.98t-.464.6q-.38.2-.762.02t-.654-.731l-1.544-3.156q-.458-.936-.935-1.312T40.5,30.236q-.457.234-.684.728t-.145,1.112q.082.488.65,1.648L41.48,36.1q.282.577.182.989t-.481.61q-.369.191-.754.015t-.656-.732l-2.684-5.487q-.265-.542-.183-.919t.453-.566q.226-.115.466-.09t.465.205Q38.512,30.305,38.678,30.646Zm12.556-6,2.674,5.467q.459.938.61,1.705t-.026,1.414q-.178.646-.712,1.191T52.3,35.461q-.871.452-1.692.535t-1.4-.156q-.584-.24-.807-.7-.169-.346-.065-.673t.4-.481q.372-.192.83.03.228.116.466.231t.481.158q.242.044.522-.019t.6-.229q.655-.339.916-.73t.227-.831q-.034-.441-.213-.871t-.619-1.361q-.092.808-.446,1.389t-1.059.945q-.848.438-1.72.282t-1.64-.852q-.768-.7-1.327-1.839-.416-.851-.543-1.644t.028-1.46q.155-.667.541-1.163t.988-.8q.719-.367,1.4-.329t1.448.463l-.125-.255q-.24-.49-.155-.87t.425-.553q.488-.249.822.024T51.234,24.646Zm-3.724,4.9q.561,1.148,1.3,1.5t1.448-.011q.42-.217.671-.661t.237-1.073q-.013-.628-.368-1.353-.564-1.152-1.332-1.562t-1.512-.029q-.725.371-.861,1.21T47.51,29.543Zm16.974-7.87q.445.91.384,1.85t-.662,1.765q-.6.826-1.7,1.4-1.323.684-2.46.565-.81-.09-1.523-.569T57.494,25.56q-.182-.371-.081-.754t.455-.565q.288-.148.587-.044t.638.437q.406.393.763.613t.819.244q.462.024,1.048-.278.8-.415,1.1-1.095t-.012-1.31q-.245-.5-.668-.673t-.933-.117q-.51.056-1.321.24-1.089.241-1.907.235t-1.488-.4q-.67-.392-1.1-1.264-.407-.832-.318-1.684t.685-1.588q.6-.736,1.629-1.261.825-.419,1.538-.5t1.295.1q.582.178.969.5t.581.721q.177.363.092.77t-.427.582q-.311.159-.557.067t-.63-.393q-.522-.444-1.019-.589t-1.255.241q-.7.358-.965.925t-.023,1.054q.148.3.4.447t.588.171q.334.027.64-.019t.995-.183q.854-.188,1.583-.262t1.326.049q.6.123,1.092.523T64.484,21.674Zm7.282-4.511q.406.831.521,1.65t-.072,1.547q-.187.728-.657,1.308t-1.224.97q-.748.387-1.48.422t-1.42-.247q-.688-.283-1.255-.86T65.2,20.534q-.415-.848-.529-1.67t.073-1.541q.186-.719.666-1.3t1.217-.959q.749-.383,1.493-.421t1.423.244q.68.282,1.246.861T71.767,17.162Zm-1.649.847q-.557-1.138-1.31-1.545t-1.5-.024q-.484.247-.714.72t-.16,1.128q.071.656.432,1.393t.821,1.176q.464.445.971.547t1-.153q.748-.386.879-1.251T70.118,18.01Zm9.053-4.65q.4.827.52,1.641t-.068,1.538q-.184.723-.649,1.3t-1.212.962q-.741.383-1.466.417t-1.408-.248q-.683-.283-1.245-.857T72.668,16.7q-.413-.844-.527-1.662t.069-1.533q.183-.714.658-1.293t1.205-.951q.742-.379,1.479-.416t1.412.245q.675.282,1.237.859T79.17,13.36Zm-1.634.839q-.554-1.133-1.3-1.539t-1.49-.027q-.479.245-.707.714t-.156,1.121q.071.652.431,1.386t.816,1.171q.461.444.964.546t.993-.151q.741-.382.869-1.243T77.537,14.2Zm3.05-4.986.109.223q.113-.861.474-1.422t1.018-.9q.64-.327,1.3-.266t1.19.514q.325.256.563.623t.536.974l1.676,3.427q.271.553.188.951t-.437.581q-.36.186-.727.012t-.631-.715l-1.5-3.073q-.446-.912-.9-1.281t-1.122-.03q-.433.222-.645.7t-.127,1.076q.083.474.636,1.6l1.132,2.314q.275.561.184.96t-.453.586q-.35.181-.718.006t-.633-.716l-2.613-5.343q-.258-.528-.183-.892t.426-.543q.214-.109.443-.082t.445.2Q80.425,8.881,80.587,9.213Z" transform="translate(47.364 25.434)" fill="#6c63ff"/><g fill="none"><path d="M.073,81.923,163.442.135" stroke="none"/><path d="M 163.5081939697266 0.2697354257106781 L 0.14584881067276 82.07270050048828 L -0.0002533253573346883 81.7740478515625 L 163.3763275146484 9.923199831973761e-05 L 163.5081939697266 0.2697354257106781 Z" stroke="none" fill="#6c63ff"/></g></g></g></g></g></svg>