<svg xmlns="http://www.w3.org/2000/svg" width="535.786" height="992.834" viewBox="0 0 535.786 992.834"><path d="M5384.375,3045.861s19.77,34.751,26.654,44.978,19.382,33.731,45.224,65.229,42.646,49.036,58.144,60.761,24.385,17.226,33.118,20.8,62.232,17.325,109.917,35.02,42.01,12.428,80.821,35.759,47.46,31.907,74.424,57.563,31.912,37.729,35.617,44.61,14.678,36.211,14.678,36.211,2.544,10.248,4.07,28.2-1.309,24.639,2.035,43.608,8.526,28.058,11.338,32.27,20.423,29.218,29.944,46.225,8.655,18.953,9.258,21.5,1.2,10.473-1.118,26.466.146,17.952-8.14,37.5-9.665,18.868-25,40.7-25.22,34.741-63.377,67.156-35.688,32.2-89.254,62.5-67.059,33.451-125.01,58.726-64.734,22.645-106.793,42.372-32.8,15.361-61.444,36.534-54.456,48.138-54.456,48.138Z" transform="translate(-5384.375 -3045.861)" fill="#6c63ff" opacity="0.14"/></svg>